<?xml version="1.0" encoding="UTF-8"?>
<svg id="uuid-faa73c15-96ee-465a-8734-96669944cc26" data-name="eed1427b-5c89-4b82-8d8d-2ababe57b427" xmlns="http://www.w3.org/2000/svg" viewBox="0 0 720 294.11">
  <defs>
    <style>
      .uuid-c5e4a08a-ddda-481f-aca6-6d888b36a2d0 {
        fill: #a4cf5f;
      }

      .uuid-0a859f6c-4ca6-49c7-a805-8526e4433be5 {
        fill: #08e5ff;
      }

      .uuid-4d3c34c3-f9a1-43f0-bd31-16eee41ab510 {
        fill: #abd6ff;
      }
    </style>
  </defs>
  <g>
    <g>
      <path class="uuid-c5e4a08a-ddda-481f-aca6-6d888b36a2d0" d="M652.9,32.21c-4.11,1.37-8.15,2.96-12.09,4.76-3.91,1.78-7.7,3.83-11.34,6.12-7.14,4.34-13.36,10.04-18.29,16.78-2.64,3.78-4.68,7.95-6.05,12.36-1.89,3.77-3.28,7.77-4.12,11.9-.5,2.1-.86,4.24-1.06,6.39-.43,4.28-.06,8.6,1.1,12.74.3,1.06.64,2.04,1.02,3.06,1.18,3.6,2.82,7.02,4.88,10.2,2.24,3.49,4.96,6.65,8.09,9.37,1.55,1.4,3.22,2.66,4.99,3.78l1.81,1.06c2.66,2.17,5.62,3.93,8.81,5.22,4.05,1.6,8.34,2.52,12.7,2.72,2.21.15,4.44.15,6.65,0l1.85-.19c5.55,1.27,11.27,1.64,16.93,1.1,8.73-.95,17.15-3.78,24.68-8.31,3.69-2.2,7.12-4.8,10.24-7.75,3.08-3.04,5.81-6.43,8.13-10.09,2.39-3.58,4.31-7.45,5.71-11.53,1.39-4.15,2.2-8.48,2.42-12.85.19-4.07-.16-8.15-1.06-12.13.32-2.08.47-4.17.45-6.27-.05-4.3-.83-8.55-2.31-12.59-1.46-3.97-3.49-7.7-6.05-11.07-1.27-1.69-2.66-3.3-4.16-4.8-1.5-1.5-3.09-2.9-4.76-4.19-1.63-1.27-3.35-2.42-5.14-3.44-1.83-1.06-3.74-1.98-5.71-2.76-3.99-1.6-8.19-2.63-12.47-3.06-1.76-.21-3.52-.31-5.29-.3-7.01.17-13.95,1.45-20.56,3.78M654.15,33.87c1.93-.6,3.78-1.1,5.82-1.55s3.17-.68,4.76-.94c-1.17.3-2.38.64-3.55,1.02-4.03,1.34-7.95,3.01-11.72,4.99h0c-4.11,1.34-8.12,3-11.98,4.95-3.81,1.89-7.47,4.09-10.92,6.58-4.2,3-8.09,6.42-11.6,10.2-2.11,2.03-4.04,4.23-5.78,6.58l1.25-2.27c.92-1.57,1.94-3.07,3.06-4.5,1.45-1.87,3.03-3.64,4.72-5.29,1.7-1.65,3.49-3.2,5.37-4.65,5.91-4.44,12.36-8.11,19.2-10.92,3.7-1.6,7.49-3,11.34-4.19M677.02,32.66h0M691.87,35.04c2.76,1.34,5.38,2.94,7.82,4.8,3.06,2.41,5.81,5.17,8.2,8.24,2.19,2.83,4,5.93,5.4,9.22.42.98.79,2.04,1.13,3.06-2.91-7.56-7.82-14.18-14.21-19.16-1.21-.98-2.47-1.89-3.78-2.72-1.37-1.27-2.85-2.42-4.42-3.44M689.41,39.05c-1.36-1.06-2.83-1.97-4.38-2.72,1.64.45,3.26.99,4.84,1.63,2.26,1.03,4.42,2.26,6.46,3.67.94.98,1.85,2.04,2.72,3.14s1.28,1.74,1.85,2.68c-.87-.76-1.78-1.47-2.68-2.15-1.91-1.41-3.91-2.67-6.01-3.78-.86-.82-1.77-1.59-2.72-2.31M674.03,37.99l1.51.26c-2.06-.13-4.13-.13-6.2,0,1.55-.2,3.12-.29,4.69-.26M685.14,45.02h.23c1.96.85,3.81,1.93,5.52,3.21l1.4,1.17-1.44-1.02c-1.46-.99-3.01-1.86-4.61-2.61-.35-.3-.71-.58-1.1-.83M649.92,47.25c-.98.42-1.93.87-2.83,1.32-2.08,1.06-4.12,2.19-6.05,3.4l-1.81.68c1.21-.79,2.46-1.59,3.78-2.34l2.15-1.21,1.59-.76,3.21-1.1M633.78,47.78c-1.44,1.02-2.87,2.12-4.27,3.29-6.56,5.37-12.11,11.87-16.36,19.2-2.13,3.65-3.81,7.55-4.99,11.6-1.06,3.62-1.69,7.35-1.89,11.11-.38-1.43-.68-2.88-.91-4.35-.42-3.34-.42-6.71,0-10.05,0-.64.19-1.28.3-1.89,1.79-3.93,4.02-7.65,6.65-11.07,3.58-4.5,7.69-8.55,12.24-12.06,1.41-1.06,2.85-2.08,4.31-3.06,1.59-.94,3.25-1.85,4.91-2.72M681.85,48.84l2.46.72.76.72c-1.02-.53-2.12-.98-3.21-1.44M705.06,49.67l.6.76c1.57,2.04,2.96,4.22,4.16,6.5-.79-1.06-1.63-2.12-2.46-3.1l-.76-.91c-.49-1.1-.98-2.19-1.55-3.25M667.26,54.88c2.67.37,5.29,1.07,7.79,2.08.79.34,1.59.72,2.34,1.13l-1.4-.45c-1.24-.37-2.5-.66-3.78-.87-.88-.33-1.77-.61-2.68-.83-1.17-.27-2.36-.48-3.55-.6-1.12-.13-2.24-.21-3.36-.23-2.38,0-4.76.2-7.11.6-1.78.26-3.54.68-5.25,1.25h-.53c-1.63.23-3.22.64-4.76,1.21l.34-.49.68-.45c3.45-1.03,6.98-1.8,10.54-2.31,3.53-.43,7.09-.43,10.62,0M694.7,56.89l1.44,1.7.98,1.36-1.44-1.63-.64-.68-.34-.76M632.49,58.51l-.87.79-1.25.76c.19-.23.38-.49.6-.72h0l1.47-.79M696.21,58.77h0M613.52,59.12h0M691.64,61.08v-.26h0c.19.45.34.94.49,1.4l-.57-1.28M612.2,65.43h0M686.58,74.61c-.44-2.22-1.18-4.36-2.19-6.39-.26-.53-.49-1.02-.79-1.51.94.76,1.82,1.58,2.65,2.46.41,1.23.71,2.5.91,3.78.26,2.15.26,4.32,0,6.46h0c0-1.69-.18-3.37-.53-5.03M697.95,69.47c-.01.11-.01.23,0,.34.6,1.51,1.1,3.07,1.47,4.65,0,1.06-.19,2.15-.34,3.25s-.34,2.31-.57,3.44c-.15-.67-.34-1.32-.57-1.97,0-.45-.26-.87-.42-1.32.37-2.78.46-5.59.26-8.39M615.68,73.25c.72-1.19,1.5-2.34,2.34-3.44-.23.45-.42.94-.6,1.44l-.64.83c-1.18,1.67-2.22,3.44-3.1,5.29h0l.19-.45c.56-1.29,1.19-2.55,1.89-3.78M613.82,76.92h0M711.14,78.47c.19.83.34,1.7.49,2.53.16,1.32.22,2.64.19,3.97,0,.34,0,.64-.19.98,0-.49,0-1.02-.19-1.51,0-1.25-.42-2.49-.72-3.78s.3-1.51.42-2.27M658.69,79.03l.87.23.72.42.42.38.3.53c0,.23,0,.49.19.76.02.35.02.71,0,1.06-.08.52-.22,1.03-.42,1.51,0,.26-.26.49-.38.76l-.87.45c-.47.18-.95.32-1.44.42h-1.17l-.98-.26-.68-.42-.34-.34-.23-.42c-.02-.19-.02-.38,0-.57-.02-.28-.02-.55,0-.83.08-.39.19-.77.34-1.13.18-.38.38-.74.6-1.1l.76-.76c.26-.17.54-.33.83-.45.24-.1.5-.17.76-.23h.91M603.39,82.28v.91c-.06,4.28.55,8.54,1.81,12.62.3.91.64,1.81.98,2.72.34,4.68,1.39,9.28,3.1,13.64-.49-.53-.94-1.1-1.4-1.66-1.42-1.88-2.61-3.92-3.55-6.08-1.01-2.49-1.71-5.09-2.08-7.75-.38-2.97-.38-5.98,0-8.96.26-1.84.64-3.65,1.13-5.44M605.28,88.22h0M608.16,89.01c-.02.31-.02.63,0,.94.04,1.55.19,3.09.45,4.61,0,.76.3,1.51.49,2.31.37,2.17.92,4.31,1.66,6.39-1.1-1.77-2.07-3.61-2.91-5.52-.18-2.91-.09-5.83.26-8.73M669.49,134.06c4.21-1.43,8.32-3.12,12.32-5.06,3.88-1.89,7.61-4.08,11.15-6.54,7.02-4.93,12.98-11.21,17.54-18.48,2.3-3.66,4.12-7.59,5.4-11.72.27-.82.5-1.65.68-2.49v1.89c-.56,3.89-1.6,7.7-3.1,11.34-1.76,4.04-4.01,7.85-6.69,11.34-2.93,3.69-6.28,7.03-9.98,9.94-4.03,3.02-8.41,5.56-13.04,7.56-4.66,1.95-9.55,3.31-14.55,4.04-2.21.27-4.43.41-6.65.42,2.42-.6,4.76-1.32,7.11-2.12M706.91,90.75l.34-.57c0,.68,0,1.36-.19,2.08-.27,1.74-.67,3.46-1.21,5.14-1.85,2.2-3.83,4.28-5.93,6.24,2.12-3.26,3.93-6.72,5.4-10.32.57-.83,1.1-1.7,1.59-2.57M611.33,92.03c.19,1.54.56,3.05,1.1,4.5.69,2.02,1.67,3.93,2.91,5.67,1.05,1.53,2.24,2.96,3.55,4.27.83,2.1,1.84,4.12,3.02,6.05l.45.72c-1.76-1.57-3.37-3.29-4.84-5.14-1.88-2.45-3.45-5.11-4.69-7.94l-.42-1.02c-.34-1.36-.64-2.76-.87-4.19s-.19-1.93-.23-2.91M640.02,93.51c.23.57.49,1.1.76,1.66l.42.79-.45-.45c-.15-.22-.29-.45-.42-.68,0-.38-.23-.72-.3-1.1v-.23M608.65,104.16c.64,1.1,1.32,2.19,2.04,3.21,1.47,2.14,3.1,4.16,4.88,6.05,1.36,1.99,2.88,3.87,4.54,5.63.81.88,1.64,1.71,2.49,2.49l-1.17-.49c-2.86-1.21-5.57-2.77-8.05-4.65h0c-.79-1.44-1.51-2.91-2.15-4.42-1.03-2.51-1.85-5.1-2.46-7.75M636.92,109.83c.86.23,1.73.41,2.61.53,1.19.19,2.39.3,3.59.34h1.66l1.02.49c1.12.53,2.29.97,3.48,1.32.67.21,1.35.39,2.04.53-1.32,0-2.65.23-4.01.26s-1.66,0-2.49,0c-1.79-.29-3.55-.76-5.25-1.4-.43-.18-.85-.4-1.25-.64-.49-.38-.94-.83-1.4-1.25M611.56,119.13c.42.38.87.72,1.32,1.06l.79,1.28c-.72-.76-1.44-1.55-2.12-2.34M621.27,121.21h0M681.97,124.99c1.63-.57,3.25-1.21,4.84-1.93l-1.55.91c-3.06,1.68-6.2,3.21-9.41,4.57-7.39,3.14-15.15,5.32-23.09,6.5l-2.31.23h-.38l1.7-.26c4.35-.76,8.61-1.94,12.74-3.51,2.94-1.1,5.82-2.36,8.62-3.78,2.99-.73,5.94-1.62,8.84-2.65M617.95,123.44c3.29,1.66,6.77,2.93,10.36,3.78l1.32.3c.76.6,1.51,1.21,2.31,1.78,1.47,1.1,2.95,2.12,4.5,3.06h-1.06c-3.45-.46-6.83-1.36-10.05-2.68l-2.19-1.02c-1.88-1.54-3.61-3.24-5.18-5.1M640.62,131.79l1.28.3c1.17.23,2.38.42,3.55.57h-2.87l-1.97-.98"/>
      <path class="uuid-0a859f6c-4ca6-49c7-a805-8526e4433be5" d="M678.64,118.19h-.38c-.49.19-.95.46-1.36.79-.69.5-1.33,1.06-1.93,1.66l-.91.98c-.48.53-.91,1.09-1.28,1.7-.57,1.25-1.17,2.49-1.74,3.78h0v.34h0l-.49,1.06v-.26c-.08.26-.19.51-.3.76h0l-.26.57-.26.6-.45,1.06-1.78,4.38-1.63,4.23c0-2.72-.26-5.44-.3-8.16v-15.68c0-.26,0-.38-.23-.38h0l-.57.26c-.6.37-1.17.79-1.7,1.25l-1.44,1.44c0-2.76,0-5.48.34-8.2v-.68c0-.23,0-.53-.26-.53h-.23l-.76.34c-.78.48-1.51,1.02-2.19,1.63-.87.77-1.69,1.59-2.46,2.46-.3.38-.6.79-.94,1.17-.43.53-.78,1.13-1.02,1.78-.49,6.27-.42,12.62-.45,18.9,0,5.74,0,11.53.26,17.27,0,3.17.38,6.31.57,9.45v1.55l-.34.98c-.6,1.36-1.28,2.68-1.81,4.08-.16.38-.25.79-.26,1.21-.03.31-.03.63,0,.94.13.38.33.73.6,1.02l.68.53.72.3c.26.09.52.17.79.23.47.1.95.16,1.44.19h1.1c2.89.08,5.78-.16,8.62-.72h1.51c.5-.1.99-.28,1.44-.53.41-.22.79-.49,1.13-.79.39-.35.72-.76.98-1.21.11-.15.2-.32.26-.49.2-.37.37-.77.49-1.17.15-.56.15-1.14,0-1.7-.15-.57-.47-1.08-.91-1.47-.22-.22-.46-.43-.72-.6h-.26l-.53-.3-1.51-1.02h0c-.1-.35-.25-.68-.45-.98-.14-.22-.29-.44-.45-.64-.1-.12-.19-.25-.26-.38v-2.38c0-2.53,0-5.06-.3-7.56v-.76c.19-.64.42-1.28.6-1.93.45-1.4.91-2.83,1.4-4.23.91-2.68,1.81-5.4,2.8-8.05s1.85-5.03,2.83-7.56c.4-1.11.86-2.2,1.36-3.29.11-.17.18-.37.23-.57l.83-1.93c.15-.16.24-.35.26-.57.45-1.02.94-2.04,1.44-3.06.35-.24.53-.67.45-1.1ZM658.72,169.28h.45-.45ZM667.38,167.81l-.23.26h-.45v-.3c.02-.16.02-.33,0-.49l.68.53Z"/>
    </g>
    <g>
      <path class="uuid-0a859f6c-4ca6-49c7-a805-8526e4433be5" d="M499.16,117.2c-.61.63-.61,1.64,0,2.27.76.75,1.46,1.54,2.12,2.38l1.47,2,.91,1.28c.3.49.6.94.94,1.4l1.59,2.61c.53.83.98,1.7,1.47,2.53l.83,1.55,1.13,2.15,1.1,2.27.98,2c-.02.09-.02.18,0,.26.15.15.35.23.57.23.2,0,.4-.08.53-.23.12-.08.2-.2.23-.34.04-.14.04-.28,0-.42.02-.19.02-.38,0-.57v-.3l-.34-.98-.45-1.1h0v-.45c-.04-.65-.04-1.31,0-1.97,0-.23-.3-.23-.34,0s0,1.1,0,1.63l-.3-.76-.57-1.25c-.42-.83-.79-1.7-1.21-2.57l-1.36-2.65-1.47-2.61-1.66-2.83-1.55-2.46-.76-1.13c0-.23-.26-.42-.38-.6v-.23l-.49-.6-.45-.49c-.31-.31-.73-.48-1.17-.49-.43,0-.84.18-1.13.49"/>
      <path class="uuid-c5e4a08a-ddda-481f-aca6-6d888b36a2d0" d="M519.98,20.76c-4.48.58-8.89,1.62-13.15,3.1-2.23.76-4.42,1.63-6.58,2.53l-2.99,1.06c-2.71.58-5.37,1.34-7.97,2.27-4.08,1.48-7.99,3.38-11.68,5.67-7.28,4.52-13.46,10.6-18.1,17.8-1.47,2.33-2.73,4.78-3.78,7.33-1.09,2.09-2.01,4.26-2.76,6.5-.26.79-.53,1.59-.76,2.38-.76,1.61-1.44,3.28-2.04,4.99-1.42,4.17-2.35,8.5-2.76,12.89-.41,4.46-.27,8.95.42,13.38.71,4.27,1.98,8.42,3.78,12.36,1.76,3.87,4.19,7.41,7.18,10.43,3.02,2.97,6.56,5.36,10.43,7.07,2.61,1.21,5.33,2.16,8.13,2.83l1.74,1.1c3.75,2.24,7.78,3.98,11.98,5.18,2.17.59,4.36,1.07,6.58,1.44,2.29.37,4.6.62,6.92.76,4.59.25,9.2-.06,13.72-.91,4.44-.77,8.77-2.03,12.93-3.78,8.09-3.6,15.4-8.74,21.54-15.12,2.93-2.97,5.63-6.15,8.09-9.52h.42c4.12-1.63,8.07-3.65,11.79-6.05,3.61-2.29,6.87-5.09,9.68-8.31,2.8-3.31,4.87-7.17,6.08-11.34.58-2.14.93-4.33,1.06-6.54.11-2.21-.03-4.43-.42-6.61-.72-4.3-2.26-8.42-4.54-12.13-1.33-2.26-2.86-4.4-4.57-6.39-.43-1.86-1.03-3.68-1.78-5.44-.78-1.97-1.75-3.86-2.91-5.63-2.27-3.52-5.12-6.62-8.43-9.18-3.45-2.63-7.27-4.73-11.34-6.24-2.71-1.02-5.51-1.81-8.35-2.34-.72-.45-1.44-.83-2.15-1.21-3.85-1.91-7.99-3.19-12.24-3.78-2.34-.35-4.7-.52-7.07-.53-2.11,0-4.22.15-6.31.42M554.79,30.96l1.78.68c3.24,1.39,6.3,3.17,9.11,5.29,2.46,1.93,4.68,4.15,6.61,6.61,1.48,1.96,2.75,4.08,3.78,6.31-.84-1.02-1.75-1.98-2.72-2.87-.68-.6-1.36-1.17-2.12-1.74s-.76-1.06-1.17-1.55c-3.58-4.56-8.04-8.35-13.11-11.15-.72-.53-1.44-1.1-2.19-1.59M499.16,36.17l-2.95,1.74-3.33,1.21h-.42c1.93-1.02,3.78-1.97,5.93-2.83l.76-.3M492.36,36.44c-4.62,2.41-8.92,5.38-12.81,8.84-1.21,1.1-2.38,2.31-3.51,3.55-1.52,1.26-2.96,2.61-4.31,4.04h0c1.33-1.68,2.76-3.28,4.27-4.8,1.81-1.76,3.72-3.43,5.71-4.99,3.1-2.36,6.39-4.48,9.83-6.31l.83-.34M491.72,36.7h-.19.19M475.01,41.47c-1.68,1.45-3.27,3-4.76,4.65-2.79,2.43-5.32,5.14-7.56,8.09-1.85,1.92-3.58,3.95-5.18,6.08.3-.68.64-1.36.98-2.04.91-1.47,1.89-2.87,2.91-4.23,1.59-2.01,3.32-3.91,5.18-5.67,1.83-1.79,3.78-3.47,5.82-5.03.79-.64,1.66-1.25,2.49-1.85M481.78,42.94h0M472.33,43.36h0M508.57,44.87c2.08-.59,4.2-1.03,6.35-1.32h0l3.02.3,1.89.3c-1.93.14-3.85.39-5.74.76-4.46.9-8.78,2.42-12.81,4.54-3.87,1.97-7.43,4.52-10.54,7.56-3.16,3.07-5.8,6.63-7.82,10.54-1.57,3.08-2.7,6.36-3.36,9.75-.21-1.72-.21-3.46,0-5.18.35-2.15.93-4.25,1.74-6.27,1.02-2.26,2.29-4.4,3.78-6.39,2.13-2.44,4.54-4.63,7.18-6.5,3.24-2.41,6.75-4.43,10.47-6.01,2.07-.87,4.19-1.62,6.35-2.23M548.93,49.18c1.16.93,2.27,1.93,3.33,2.99h-.68l-.3-.38c-.6-.68-1.21-1.32-1.85-1.93l-.49-.68M475.09,55.3c-.83,1.11-1.63,2.24-2.38,3.4-.68,1.06-1.28,2.15-1.89,3.29l.45-1.06c.55-1.3,1.18-2.56,1.89-3.78l1.93-1.74M577.35,56.58l.23.26c.34.68.68,1.36.98,2.08s.83,2.19,1.17,3.29,0,1.7,0,2.57v1.81c0-.26-.19-.53-.26-.79,0-1.28-.34-2.57-.57-3.78-.38-1.82-.91-3.6-1.59-5.33h0M517.15,57.75c1.13.15,2.25.41,3.33.79l1.4.83.49.45h0c-1.23-.37-2.5-.61-3.78-.72-1.12-.09-2.24-.09-3.36,0h-1.4c-1.11-.06-2.22-.06-3.33,0h-.45l.49-.42h.38l3.4-1.25c.97-.06,1.94-.06,2.91,0M462.39,58.51c-.3.68-.6,1.4-.87,2.08-.83,1.51-1.59,3.06-2.27,4.65l.79-2.15c.68-1.58,1.46-3.1,2.34-4.57M534.42,59.72l.91.53c.34.5.63,1.03.87,1.59.31.79.53,1.62.68,2.46v1.44c-1.73.59-3.42,1.29-5.06,2.08l-.23-.49c-.27-.5-.57-.98-.91-1.44-.34-.45-.64-.87-1.02-1.28.3-1,.5-2.02.6-3.06v-.53c1.32-.45,2.68-.91,4.01-1.28M456.11,65.12c.92-1.57,1.93-3.08,3.02-4.54-.3.57-.57,1.13-.83,1.7-1.75,4.03-2.75,8.35-2.95,12.74v3.48c-.31,1.85-.52,3.72-.64,5.59v-.3c-.48-3.76-.48-7.57,0-11.34.35-2.41.86-4.8,1.55-7.14h0M557.29,62.48l.34,1.66h-.68l.34-1.47M468.25,63.08c0,.57-.38,1.1-.53,1.66,0-.45.19-.87.3-1.32l.23-.34M565.64,64.07c.12.18.22.37.3.57.06,1.15.06,2.29,0,3.44l-.26-.19c.07-1.26.07-2.52,0-3.78M568.25,105.68c6.21-6.43,10.88-14.18,13.68-22.68,1.29-4.22,1.93-8.62,1.89-13.04,0-1.43-.11-2.86-.3-4.27.38.72.72,1.47,1.06,2.23,1.04,2.53,1.76,5.19,2.15,7.9.7,4.89.05,9.89-1.89,14.44-.9,2.06-2.03,4.01-3.36,5.82-1.9,2.37-4.07,4.51-6.46,6.39-1.89,1.39-3.87,2.66-5.93,3.78-1.02.6-2.12,1.17-3.17,1.7l2.34-2.49M459.67,67.32c0,.45-.19.87-.26,1.32s-.26,1.85-.38,2.76-.3,1.85-.42,2.8c-.31,2.14-.45,4.3-.42,6.46,0-.53-.23-1.06-.3-1.55-.19-2.04-.19-4.09,0-6.12.53-1.93,1.17-3.82,1.93-5.67M477.96,68.41c-.64,2.28-.99,4.63-1.02,6.99-.02,1.1.06,2.2.26,3.29.14,1.12.38,2.22.72,3.29.5,1.74,1.24,3.41,2.19,4.95-.02.19-.02.38,0,.57.34,2.16,1.02,4.25,2,6.2h0l-1.25-.72c-.53-.53-1.04-1.08-1.51-1.66-1.01-1.35-1.86-2.8-2.53-4.35-.72-1.77-1.21-3.63-1.47-5.52v-.94c0-1.1,0-2.19.23-3.25.46-3.03,1.27-6,2.42-8.84M516.09,68.83l1.13.38c.6.25,1.17.57,1.7.94-1.63,1.91-3.46,3.64-5.44,5.18l-.3.23c-.02-.25-.02-.5,0-.76-.08-.58-.08-1.16,0-1.74.09-.66.26-1.31.49-1.93l.19-.38,1.7-1.4.68-.53M557.21,70.3v-.64c.29.04.57.12.83.23v1.63l-.34,2c-.72,1.31-1.51,2.57-2.38,3.78v-.49c.96-2.01,1.64-4.15,2-6.35M486.95,70.83c0,.45-.19.91-.26,1.36h0l-.53.72h0l.34-.87.6-1.36M581.59,70.98c.01,1.58-.09,3.16-.3,4.72-.48,3.57-1.44,7.07-2.83,10.39-.9,2.09-1.94,4.12-3.1,6.08-1.16,1.95-2.42,3.85-3.78,5.67-.76.94-1.51,1.89-2.34,2.83h0c.57-1.13,1.1-2.31,1.63-3.51.34-.49.68-.94.98-1.44,1.21-1.78,2.31-3.59,3.36-5.44s2.04-3.78,2.91-5.78c.88-2.07,1.64-4.19,2.27-6.35.52-1.71.85-3.47.98-5.25l.34-1.89M503.54,71.25c-.23.57-.45,1.17-.64,1.78-.29,1.13-.5,2.28-.6,3.44-.15,1.08-.15,2.17,0,3.25-.53.83-.98,1.66-1.47,2.53h-.23c-.3-.53-.57-1.02-.83-1.59-.47-1.22-.8-2.49-.98-3.78-.06-.67-.06-1.34,0-2,.89-.88,1.82-1.71,2.8-2.49.64-.5,1.31-.95,2-1.36M536.2,72.04c-.66,1.32-1.43,2.59-2.31,3.78l-.57.68c.29-1.15.44-2.33.45-3.51l1.02-.45,1.4-.53M511.4,73.17c-.16,1.2-.06,2.43.3,3.59l-.34.19c-.23-.68-.41-1.37-.53-2.08-.02-.35-.02-.71,0-1.06.23,0,.42-.42.64-.64M465.64,75.4c-.02.35-.02.71,0,1.06,0,1.21.34,2.46.6,3.78v.64c0-.64-.26-1.25-.38-1.89-.08-1.15-.08-2.29,0-3.44M508.23,77.18c.15.56.35,1.1.6,1.63h0l-1.85.94c-.02-.19-.02-.38,0-.57-.02-.1-.02-.2,0-.3.15-.25.33-.49.53-.72l.83-1.02M452.03,78.77v1.32c-.67,10.61,2.57,21.1,9.11,29.48.71,2.05,1.53,4.05,2.46,6.01,1.1,2.15,2.37,4.21,3.78,6.16-.91-.57-1.78-1.13-2.61-1.78-2.25-1.78-4.29-3.82-6.05-6.08-1.88-2.45-3.44-5.13-4.65-7.97-1.32-3.2-2.24-6.55-2.72-9.98-.53-4.18-.53-8.41,0-12.59.23-1.51.49-3.06.87-4.57M471.61,80.88c-.06,1.58.02,3.16.23,4.72-.19-.49-.34-1-.45-1.51-.02-.23-.02-.45,0-.68v-1.78c-.02-.25-.02-.5,0-.76M471.38,81.34,555.28,94.83c3.12-2.93,5.85-6.24,8.13-9.86.72-1.09,1.36-2.23,1.93-3.4-.26.72-.53,1.44-.83,2.15-1.56,3.68-3.61,7.14-6.08,10.28-.68.91-1.44,1.78-2.19,2.61-.56.38-1.14.72-1.74,1.02l-2.12,1.13c.42-.76.79-1.55,1.13-2.34s1.17-1.02,1.78-1.59M457.21,85v-2.76c.3,1.57.73,3.11,1.28,4.61v6.24c-.26-.66-.49-1.32-.68-2v-1.06c-.21-1.73-.31-3.47-.3-5.22M451.58,83.08h0M451.58,83.08h0M454.41,84.55c.52,3.53,1.45,6.99,2.76,10.32.23,1.14.53,2.26.91,3.36-.19-.35-.35-.72-.49-1.1-1.45-3.42-2.44-7.02-2.95-10.7,0-.64,0-1.28-.23-1.89M579.55,85.42v.19-.19M549.31,88.48c1.17-.83,2.34-1.74,3.44-2.65v.68c-.76.91-1.55,1.78-2.38,2.61l-.19.19-2.15,1.78c-2.22,1.47-4.53,2.79-6.92,3.97l.6-.72c1.13-.94,2.19-1.89,3.25-2.91s3.02-1.89,4.5-2.95M565,94.15c1.06-.91,2.08-1.85,3.06-2.83-.53,1.1-1.13,2.15-1.78,3.21-.53.45-1.06.91-1.63,1.32s-2.15,1.55-3.25,2.27c1.18-1.2,2.29-2.46,3.33-3.78l.26-.19M462.95,94.15c1.16,2.86,2.68,5.55,4.54,8.01.57,2.36,1.33,4.68,2.27,6.92-.76-.68-1.47-1.44-2.15-2.15-.83-1.41-1.58-2.88-2.23-4.38-1.12-2.7-1.93-5.51-2.42-8.39M451.96,95.77h0M465.41,102.65h0M557.29,104.09l2.31-1.25c-.64.6-1.32,1.17-2,1.74l-2.53,1.78c-2.19,1.51-4.46,2.91-6.77,4.27l-.68.42c-1.55.79-3.14,1.51-4.76,2.23s-3.78,1.44-5.52,2.08c.91-.6,1.78-1.25,2.65-1.89,1.44-.83,2.83-1.66,4.19-2.57s2.53-1.7,3.78-2.65h0l.64-.34c2.96-1.09,5.85-2.35,8.65-3.78M470.06,105.3c1.18,1.21,2.44,2.33,3.78,3.36,1.28.99,2.65,1.88,4.08,2.65,1.17,1.24,2.43,2.39,3.78,3.44-2.59-.42-5.12-1.11-7.56-2.08h0l-.79-.53c-.94-1.57-1.77-3.2-2.49-4.88-.26-.64-.49-1.25-.72-1.89M479.62,106.62c1.9.71,3.84,1.29,5.82,1.74l2.65,1.21v.3c0,.57,0,1.13.26,1.7l-2.08-.79c-1.54-.66-3.04-1.4-4.5-2.23h0c-.72-.57-1.4-1.17-2.04-1.78M456.15,114.03c-.79-1.44-1.51-2.91-2.15-4.42,1.11,2.37,2.46,4.61,4.04,6.69,2.57,3.42,5.75,6.34,9.37,8.62,1.83,1.17,3.77,2.17,5.78,2.99.54.57,1.11,1.11,1.7,1.63l-1.89-.72c-2.99-1.25-5.81-2.88-8.39-4.84-2.11-1.68-4.01-3.61-5.67-5.74-1.03-1.33-1.97-2.73-2.8-4.19M491,110.78l2.68.83,2.15,1.21c-1.21,0-2.42-.19-3.59-.34h-.83c0-.49-.3-1.02-.42-1.55M467.98,116.11c1.44,1.28,2.99,2.46,4.54,3.59,1.76,1.22,3.61,2.32,5.52,3.29l2.12.98c1.79,1.56,3.73,2.94,5.78,4.12h0c-1.81-.3-3.78-.68-5.4-1.1-1.98-.48-3.92-1.09-5.82-1.81-1.15-1.2-2.24-2.46-3.25-3.78-1.29-1.71-2.47-3.5-3.51-5.37M501.96,118.56h0v.23h-.79.68M524.97,132.47c4.37-.96,8.64-2.3,12.77-4.01,4-1.62,7.87-3.56,11.56-5.78-1.4,1.32-2.91,2.57-4.42,3.78-4.29,3.3-8.96,6.06-13.91,8.24-4.38,1.83-8.98,3.09-13.68,3.78-7.43.95-14.98.45-22.22-1.47-1.85-.49-3.78-1.1-5.52-1.78,2.71.17,5.42.17,8.13,0,3.26-.2,6.5-.59,9.71-1.17h2.76c4.98-.02,9.95-.58,14.81-1.66M489.49,126.95l1.02.19c2.75.49,5.53.79,8.31.91.64.38,1.28.68,1.93.98h-5.22c-1.93-.5-3.82-1.13-5.67-1.89l-.38-.19M472.63,128.96h0M481.02,130.7c5.05,1.15,10.21,1.72,15.38,1.7l.94.26h-3.17c-2.99.01-5.99-.16-8.96-.53l-2.31-.34-1.89-1.21M484.8,132.09h0"/>
      <path class="uuid-0a859f6c-4ca6-49c7-a805-8526e4433be5" d="M525.92,171.4c-.05-.34-.14-.67-.26-.98,0-.3-.23-.64-.38-.98h0v-2.8c-.19-3.1-.38-6.24-.6-9.33-.38-5.97-.72-11.94-1.06-17.88-.34-5.93-.53-11.68-.72-17.54v-7.33c.02-.13.02-.25,0-.38h-.19c-.32.05-.63.15-.91.3-.66.42-1.29.89-1.89,1.4-.74.67-1.45,1.37-2.12,2.12-.88.88-1.51,1.98-1.85,3.17-.26,1.44-.42,2.89-.49,4.35v1.36l-1.06.98c-.06.01-.13.01-.19,0v-12.62h0c.02-.06.02-.13,0-.19h0c-.3,0-.79.42-.87.45-.61.46-1.16.98-1.66,1.55l-.42.53c-.21.25-.38.53-.49.83-.23,3.25-.3,6.5-.38,9.79s0,6.31,0,9.49v17.99c0,4.5,0,8.96.19,13.45-.19.31-.36.64-.49.98v2.34c0,.79-.26.45-.38.72-.6,1.1-1.13,2.23-1.63,3.36l-.23.68v.45c-.09.51-.09,1.04,0,1.55.02.15.02.3,0,.45.08.27.18.54.3.79.22.38.53.71.91.94l.6.26h0c.38.11.79.11,1.17,0,.4-.08.78-.24,1.13-.45l.68-.38,1.06-.53c1.32-.49,2.72-.79,4.08-1.21s2.72-.87,4.12-1.25l1.93-.45.94-.38c.56-.25,1.03-.66,1.36-1.17.24-.38.44-.79.6-1.21.17-.53.27-1.07.3-1.63-.29-.6-.67-1.15-1.13-1.62Z"/>
    </g>
    <g>
      <path class="uuid-c5e4a08a-ddda-481f-aca6-6d888b36a2d0" d="M377.54,25.25c-1.13,0-2.27,0-3.4.26h-.19c-2.26.06-4.52.25-6.77.57-2.16.34-4.29.8-6.39,1.4-2.08.57-4.19,1.21-6.24,1.93-4.08,1.41-7.98,3.32-11.6,5.67-1.81,1.21-3.55,2.53-5.25,3.78-1.63,1.32-3.2,2.72-4.69,4.19-1.5,1.5-2.88,3.11-4.12,4.84-1.14,1.64-2.16,3.36-3.06,5.14-1.02,1.36-1.97,2.83-2.87,4.31s-2.12,3.78-3.02,5.52c-1.84,3.88-2.94,8.07-3.25,12.36v.42c-.19.76-.3,1.51-.45,2.27-.72,4.22-.79,8.53-.23,12.77.3,2.09.8,4.14,1.51,6.12.7,1.99,1.56,3.93,2.57,5.78.99,1.81,2.12,3.54,3.36,5.18,1.26,1.64,2.61,3.22,4.04,4.72,2.91,2.99,6.15,5.65,9.64,7.94,3.53,2.36,7.34,4.28,11.34,5.71,2.64.95,5.36,1.66,8.13,2.12,4.06,1.83,8.31,3.22,12.66,4.16,8.68,1.98,17.73,1.56,26.19-1.21,4.14-1.34,8.12-3.13,11.87-5.33,1.81-1.08,3.55-2.27,5.22-3.55,1.74-1.31,3.4-2.74,4.95-4.27,6.23-6.17,10.73-13.88,13.04-22.34,1.2-4.3,1.82-8.73,1.85-13.19.06-4.44-.51-8.87-1.7-13.15-2.35-8.4-6.57-16.15-12.36-22.68-2.73-3.13-5.92-5.83-9.45-8.01-.79-.49-1.61-.93-2.46-1.32-1.53-1.57-3.17-3.02-4.91-4.35-1.66-1.26-3.4-2.41-5.22-3.44-1.92-1.02-3.92-1.89-5.97-2.61-3.8-1.29-7.78-1.92-11.79-1.89h-1.1M373.12,28.65c-2.4.2-4.78.6-7.11,1.21l-.91.23.6-.19c1.55-.45,3.17-.87,4.76-1.17h2.65M377.47,32.74c2.58.37,5.12,1.01,7.56,1.93l-3.4.57c-3.99-.69-8.06-.83-12.09-.42-4.31.45-8.53,1.51-12.55,3.14-3.94,1.64-7.73,3.62-11.34,5.9-1.85,1.17-3.64,2.43-5.37,3.78-1.67,1.3-3.26,2.7-4.76,4.19l-.6.6c1.02-1.21,2.12-2.38,3.25-3.51,1.65-1.59,3.39-3.08,5.22-4.46,2.43-1.87,4.95-3.61,7.56-5.22,2.33-1.42,4.76-2.68,7.26-3.78l3.06-.98c2.38-.71,4.8-1.25,7.26-1.63,2.96-.38,5.96-.38,8.92,0M387.37,33.19l2.12.83.76.3h-.04l-2.65-1.13M390.5,37.2c.57.3,1.13.6,1.66.94l-2.61-.91h.94M395.46,37.23h.38c.87.57,1.74,1.21,2.57,1.81,1.59,1.25,3.09,2.6,4.5,4.04l-.38-.26c-2.19-2.07-4.56-3.96-7.07-5.63M372.59,37.2h1.59l-3.1,1.1-2.12.79c-1.68.34-3.33.79-4.95,1.36-2.06.71-4.06,1.56-6.01,2.53-1.95.93-3.84,1.98-5.67,3.14-.98.6-1.97,1.28-2.95,1.97-1.57.53-3.11,1.15-4.61,1.85-3.86,1.84-7.37,4.31-10.39,7.33-1.53,1.54-2.9,3.23-4.12,5.03-.98,1.47-1.82,3.03-2.53,4.65,0-.53.23-1.06.38-1.59s.42-1.4.68-2.08c.99-1.72,2.11-3.38,3.33-4.95,2.6-3.41,5.6-6.48,8.96-9.15,2.32-1.71,4.74-3.28,7.26-4.69,2.45-1.38,4.98-2.65,7.56-3.78,1.8-.76,3.64-1.42,5.52-1.97,1.84-.49,3.71-.87,5.59-1.13,1.77-.23,3.55-.34,5.33-.34M389.11,41.77c-1.23-.57-2.49-1.08-3.78-1.51h1.25c1.21.19,2.38.42,3.55.72s3.29,1.51,4.88,2.34l-.64-.19c-1.32-.38-2.65-.68-3.97-.94l-1.17-.53M338.61,46.34h0M330.75,53.71c-.3.42-.6.87-.87,1.32-1.12,1.85-2.09,3.78-2.91,5.78-.56,1.44-1.06,2.9-1.47,4.38-.57,1.13-1.1,2.31-1.55,3.48v-1.02c.38-2.7,1.01-5.36,1.89-7.94l1.81-2.46c.94-1.21,1.97-2.42,2.99-3.55M423.12,61.65c-.69-2.2-1.54-4.35-2.53-6.42l-.23-.45c1.61,2.6,3.03,5.32,4.23,8.13,1.37,3.3,2.41,6.73,3.1,10.24,0-.42-.26-.79-.38-1.17-.71-2.11-1.62-4.15-2.72-6.08l-.64-1.02c-.22-1.08-.5-2.16-.83-3.21M343.75,57.49c-.76.91-1.47,1.81-2.15,2.8-1.13,1.62-2.1,3.34-2.91,5.14h0c-.55,1-1.03,2.03-1.44,3.1-.8,1.98-1.42,4.03-1.85,6.12-.49,2.19-.79,4.41-.91,6.65-.11,2.31,0,4.63.34,6.92v.64c-1.48-4.02-1.95-8.34-1.36-12.59.39-2.7,1.12-5.35,2.19-7.86,1.23-2.79,2.78-5.42,4.61-7.86l1.02-1.25.26-.19,2.38-1.74M370.02,60.06l-.79.53c-.76.57-1.47,1.13-2.19,1.78-1.02.31-2.02.7-2.99,1.17-.62.29-1.21.64-1.78,1.02.53-.79,1.1-1.59,1.7-2.34l.38-.49c1.85-.69,3.74-1.24,5.67-1.66M320.89,68.83c0,1.06-.19,2.15-.23,3.25-.02,2.23.13,4.45.45,6.65,0,.79.26,1.59.42,2.38-.01,1.39.05,2.78.19,4.16.39,3.93,1.43,7.76,3.1,11.34-1.06-1.79-2.01-3.64-2.83-5.56-1.3-3.08-2.21-6.3-2.72-9.6-.27-2.51-.27-5.05,0-7.56.42-1.59.95-3.14,1.59-4.65h0M331.66,70.98c-.57,1.88-.98,3.8-1.21,5.74-.26,2.11-.26,4.24,0,6.35.23,2.14.67,4.26,1.32,6.31.05.19.11.38.19.57-.94-1.44-1.78-2.95-2.53-4.5,0-.64-.26-1.28-.34-1.93-.23-1.96-.23-3.94,0-5.9.34-1.29.77-2.55,1.28-3.78.42-.94.87-1.89,1.36-2.8M324.4,74.84c.01,1.51.14,3.01.38,4.5-.02.35-.02.71,0,1.06h0c0-.87-.34-1.7-.45-2.53s0-1.1,0-1.66,0-.94.3-1.4M407.78,87.76c1.29-1.87,2.35-3.89,3.17-6.01.31-.82.57-1.65.79-2.49,0,1.36,0,2.72-.26,4.08-.5,3.22-1.39,6.37-2.65,9.37-1.4,3.27-3.17,6.36-5.29,9.22-2.05,1.26-4.18,2.37-6.39,3.33-2.34.96-4.76,1.73-7.22,2.31,1.93-.77,3.76-1.77,5.44-2.99,1.94-1.36,3.68-2.97,5.18-4.8.8-1.01,1.54-2.05,2.23-3.14.57-.93,1.07-1.9,1.47-2.91.42-.91.76-1.81,1.1-2.76.72-.8,1.36-1.66,1.93-2.57l.49-.64M426.9,91.88c.8-1.76,1.42-3.6,1.85-5.48,0,.53,0,1.02-.19,1.51-.6,4.32-1.74,8.55-3.4,12.59-1.66,3.78-3.75,7.36-6.24,10.66-2.57,3.29-5.54,6.25-8.84,8.81-3.8,2.89-7.94,5.3-12.32,7.18-4.11,1.74-8.43,2.95-12.85,3.59-4.02.49-8.08.49-12.09,0-2.55-.37-5.08-.91-7.56-1.63,2.74-.11,5.46-.5,8.13-1.17,4.28.68,8.64.68,12.93,0,4.38-.69,8.65-1.96,12.7-3.78,3.98-1.75,7.72-3.99,11.15-6.65,3.39-2.65,6.35-5.81,8.77-9.37,1.16-1.74,2.17-3.57,3.02-5.48.76-1.69,1.39-3.43,1.89-5.22,1.18-1.63,2.19-3.38,3.02-5.22M318.06,86.97c1.93,6.69,5.18,12.92,9.56,18.33,2.64,3.39,5.54,6.56,8.69,9.49,3.13,2.93,6.48,5.62,10.02,8.05l1.02.68-.76-.3c-4.14-1.79-8.03-4.09-11.6-6.84-1.75-1.37-3.43-2.83-5.03-4.38-1.56-1.54-3.01-3.18-4.35-4.91-1.01-1.32-1.94-2.69-2.8-4.12-.87-1.49-1.64-3.03-2.31-4.61-.49-1.21-.94-2.42-1.32-3.78-.37-1.34-.65-2.7-.83-4.08,0-1.21-.26-2.42-.3-3.78M340.24,96.04c.23.3.42.64.68.94s.23,1.02.34,1.51c0-.38-.34-.76-.49-1.13s-.38-.87-.53-1.32M346.21,102.43c.34.23.64.49,1.02.72,1.44,1,2.99,1.84,4.61,2.49l1.06.49c.16.38.35.75.57,1.1l.38.64c-2.31-1.06-4.56-2.26-6.73-3.59l-.91-1.85M343.68,109.34l1.4.83c.12.19.26.37.42.53l-1.47-1.1-.34-.26M390.5,113.42l-2.46,1.47c-1.36.3-2.72.53-4.12.72-1.93.26-3.87.39-5.82.38,2.54-.25,5.07-.66,7.56-1.25,1.53-.36,3.05-.8,4.54-1.32h.38M334.53,115.81h0M359.14,116.18c3.89,1.23,7.89,2.09,11.94,2.57,1.25.19,2.46.26,3.78.34-1.49.18-2.99.27-4.5.26-1.58,0-3.16-.11-4.72-.34l-1.21-.19c-1.79-.78-3.53-1.66-5.22-2.65M345.34,119.09c2.35,1.43,4.8,2.69,7.33,3.78,3.17,1.43,6.47,2.54,9.86,3.29-1.57-.02-3.13-.13-4.69-.34l-1.59-.26c-3.84-1.84-7.5-4.04-10.92-6.58"/>
      <path class="uuid-0a859f6c-4ca6-49c7-a805-8526e4433be5" d="M389.11,171.85c-.07-.3-.2-.58-.38-.83-.21-.31-.45-.61-.72-.87l-.83-.72h0c-.23-.57-.42-1.17-.64-1.78.16-.17.3-.36.42-.57.53-.92.39-2.07-.34-2.83-.37-.36-.85-.6-1.36-.68l-.45-1.51-.57-2.12c0-.6-.34-1.21-.45-1.85-.3-1.44-.57-2.87-.76-4.31-.02-.2-.02-.4,0-.6v-.57c-.08-.23-.19-.45-.34-.64v-11.19c0-5.74.26-11.34.38-17.23v-9.98c0-1.63-.3-3.29-.49-4.91h-.34c-.31,0-.61.12-.83.34l-1.02.68c-.53.38-1.03.8-1.51,1.25v-2.38c0-.79,0-.45-.26-.45h0l-.68.3c-.7.44-1.37.93-2,1.47-.38.33-.75.69-1.1,1.06v-6.8c0-.3,0-.45-.26-.45h-.19l-.64.3c-.67.4-1.3.85-1.89,1.36-.73.67-1.42,1.37-2.08,2.12l-.83,1.02c-.38.44-.68.96-.87,1.51v16.44c-.94-1.59-1.97-3.1-2.99-4.65s-2.61-3.78-4.01-5.37c-.26-.27-.59-.46-.94-.57h-.57c-.37,0-.74.11-1.06.3-.49.27-.85.74-.98,1.28-.17.55-.09,1.14.23,1.63,1.74,2.31,3.36,4.72,4.95,7.14.79,1.25,1.59,2.53,2.31,3.78s1.28,2.57,1.85,3.78c.26.57.49,1.13.72,1.7l.23.53h0c0,3.51,0,7.03-.19,10.54v11.6l-1.02,3.4c-.87,2.95-1.78,5.9-2.49,8.92-.16.52-.26,1.05-.3,1.59-.06.3-.06.61,0,.91.09.27.23.53.42.76h0c-.02.55.1,1.09.34,1.59.13.25.31.46.53.64l.42.34.68.3h1.78l2.46-.38c1.21-.23,2.42-.53,3.78-.72,2.65-.3,5.33-.34,7.97-.38h2.08c.67.06,1.34.06,2,0l1.44-.19h.57l.76-.38c.53-.31.92-.81,1.1-1.4-.17-.53-.52-.98-.98-1.28Z"/>
    </g>
  </g>
  <g>
    <g>
      <path class="uuid-4d3c34c3-f9a1-43f0-bd31-16eee41ab510" d="M43.79,4.81c.13,2.25-1.59,4.18-3.84,4.31-.14,0-.28,0-.43,0h-13.15v72.94c.11,2.27-1.65,4.2-3.92,4.31-.13,0-.26,0-.39,0-2.34.02-4.25-1.86-4.27-4.19,0-.04,0-.08,0-.11V9.11H4.71C2.34,9.34.24,7.6.02,5.23-.2,2.86,1.54.76,3.91.54c.27-.03.54-.03.81,0h34.88c2.25-.07,4.13,1.71,4.2,3.96,0,.1,0,.21,0,.31Z"/>
      <path class="uuid-4d3c34c3-f9a1-43f0-bd31-16eee41ab510" d="M93.15.04c2.25-.11,4.16,1.63,4.27,3.88,0,.13,0,.26,0,.39v77.74c.13,2.25-1.59,4.18-3.84,4.31-.14,0-.28,0-.43,0-2.36.02-4.29-1.87-4.31-4.23,0-.03,0-.05,0-.08v-35.94h-23.66v35.94c.11,2.27-1.65,4.2-3.92,4.31-.13,0-.26,0-.39,0-2.36.02-4.29-1.87-4.31-4.23,0-.03,0-.05,0-.08V4.28c-.02-2.34,1.86-4.25,4.19-4.27.04,0,.08,0,.11,0,2.25-.13,4.18,1.59,4.31,3.84,0,.14,0,.28,0,.43v33.26h23.58V4.28c0-2.34,1.89-4.23,4.23-4.24.05,0,.1,0,.15,0Z"/>
      <path class="uuid-4d3c34c3-f9a1-43f0-bd31-16eee41ab510" d="M143.83,47.32l12.32,33.26c.85,2.13-.19,4.55-2.32,5.4-.07.03-.14.05-.21.08-2.18.84-4.63-.24-5.48-2.42-.01-.04-.03-.08-.04-.11l-12.85-34.73h-11v33.26c.11,2.27-1.65,4.2-3.92,4.31-.13,0-.26,0-.39,0-2.34.02-4.25-1.86-4.27-4.19,0-.04,0-.08,0-.11V4.81c-.02-2.34,1.86-4.25,4.19-4.27.03,0,.05,0,.08,0h16.1c11.25,0,20.37,9.12,20.37,20.37h0v7.56c.03,8.26-4.94,15.72-12.59,18.86ZM147.83,28.43v-7.56c0-6.51-5.28-11.79-11.79-11.79h-11.79v31.1h11.79c6.47.04,11.75-5.17,11.79-11.64,0-.04,0-.08,0-.11Z"/>
      <path class="uuid-4d3c34c3-f9a1-43f0-bd31-16eee41ab510" d="M175.73.54h26.83c2.37.22,4.11,2.32,3.89,4.69-.19,2.06-1.83,3.69-3.89,3.89h-22.68v28.42h19.88c2.37.22,4.11,2.32,3.89,4.69-.19,2.06-1.83,3.69-3.89,3.89h-19.88v31.1h22.68c2.37.22,4.11,2.32,3.89,4.69-.19,2.06-1.83,3.69-3.89,3.89h-26.83c-2.25.13-4.18-1.59-4.31-3.84,0-.14,0-.28,0-.43V4.81c-.11-2.25,1.63-4.16,3.88-4.27.14,0,.28,0,.43,0Z"/>
      <path class="uuid-4d3c34c3-f9a1-43f0-bd31-16eee41ab510" d="M225.08.54h26.8c2.37-.22,4.47,1.52,4.69,3.89.22,2.37-1.52,4.47-3.89,4.69-.27.03-.54.03-.81,0h-22.68v28.42h19.84c2.37-.22,4.47,1.52,4.69,3.89.22,2.37-1.52,4.47-3.89,4.69-.27.03-.54.03-.81,0h-19.84v31.1h22.68c2.37-.22,4.47,1.52,4.69,3.89.22,2.37-1.52,4.47-3.89,4.69-.27.03-.54.03-.81,0h-26.8c-2.25.13-4.18-1.59-4.31-3.84,0-.14,0-.28,0-.43V4.81c-.11-2.25,1.63-4.16,3.88-4.27.14,0,.28,0,.43,0Z"/>
    </g>
    <g>
      <path class="uuid-4d3c34c3-f9a1-43f0-bd31-16eee41ab510" d="M45.3,113.95c.13,2.31-1.64,4.29-3.96,4.42-.16,0-.31,0-.47,0h-13.49v75.28c.13,2.33-1.66,4.33-4,4.46-.14,0-.28,0-.43,0-2.42.02-4.4-1.92-4.42-4.35,0-.04,0-.08,0-.11v-75.28H4.98c-2.44,0-4.43-1.97-4.43-4.41,0-2.44,1.97-4.43,4.41-4.43h35.99c2.32-.09,4.26,1.72,4.35,4.03,0,.13,0,.26,0,.39Z"/>
      <path class="uuid-4d3c34c3-f9a1-43f0-bd31-16eee41ab510" d="M87.86,157.83l12.74,34.32c.85,2.3-.33,4.84-2.63,5.69-2.3.85-4.84-.33-5.69-2.63h0l-13.3-35.87h-11.34v34.32c.13,2.33-1.66,4.33-4,4.46-.14,0-.28,0-.43,0-2.42.02-4.4-1.92-4.42-4.35,0-.04,0-.08,0-.11v-79.71c-.04-2.4,1.87-4.38,4.27-4.42.05,0,.1,0,.15,0h16.59c11.63,0,21.05,9.42,21.05,21.05h0v7.56c.14,8.62-5.02,16.43-13,19.69ZM92.01,138.33v-7.56c0-6.74-5.47-12.21-12.21-12.21h-12.36v32.12h12.17c6.7.04,12.17-5.35,12.21-12.05,0-.1,0-.2,0-.3h.19Z"/>
      <path class="uuid-4d3c34c3-f9a1-43f0-bd31-16eee41ab510" d="M120.59,109.64h27.74c2.44,0,4.43,1.97,4.43,4.41,0,2.44-1.97,4.43-4.41,4.43h-23.3v29.37h20.48c2.44,0,4.42,1.99,4.41,4.43,0,2.44-1.98,4.41-4.41,4.41h-20.48v32.12h23.28c2.44,0,4.43,1.97,4.43,4.41,0,2.44-1.97,4.43-4.41,4.43h-27.72c-2.34.11-4.31-1.7-4.42-4.04,0-.13,0-.26,0-.39v-79.29c-.07-2.32,1.76-4.25,4.08-4.31.1,0,.21,0,.31,0Z"/>
      <path class="uuid-4d3c34c3-f9a1-43f0-bd31-16eee41ab510" d="M171.53,109.64h27.66c2.44,0,4.43,1.97,4.43,4.41,0,2.44-1.97,4.43-4.41,4.43h-23.26v29.37h20.48c2.44,0,4.42,1.99,4.41,4.43,0,2.44-1.98,4.41-4.41,4.41h-20.48v32.12h23.24c2.44,0,4.43,1.97,4.43,4.41,0,2.44-1.97,4.43-4.41,4.43h-27.68c-2.31.13-4.29-1.64-4.42-3.96,0-.16,0-.31,0-.47v-79.29c-.07-2.32,1.76-4.25,4.07-4.31.12,0,.23,0,.35,0Z"/>
      <path class="uuid-4d3c34c3-f9a1-43f0-bd31-16eee41ab510" d="M246.93,177.33c.42-3.69-.91-7.37-3.59-9.94l-22.15-22.68c-4.24-4.26-6.36-10.19-5.78-16.18.46-6,3.47-11.5,8.28-15.12,4.8-3.68,10.98-5.07,16.89-3.78,5.91,1.19,11.01,4.88,13.98,10.13,1.52,1.92,1.19,4.7-.72,6.21s-4.7,1.19-6.21-.72c-.26-.32-.47-.68-.62-1.07-1.67-3.1-4.69-5.25-8.16-5.82-3.44-.74-7.03.06-9.83,2.19-2.82,2.04-4.55,5.26-4.69,8.73-.32,3.47.89,6.91,3.33,9.41l22.15,22.86c8.28,8.69,7.95,22.44-.74,30.72-8.69,8.28-22.44,7.95-30.72-.74-1.15-1.21-2.16-2.54-3-3.98-1.14-2.15-.41-4.81,1.66-6.08,2.08-1.24,4.77-.55,6.01,1.53.03.04.05.09.08.13,1.81,3.08,4.87,5.22,8.39,5.86,3.59.77,7.34-.09,10.24-2.34,3.1-2.13,5.03-5.58,5.22-9.33Z"/>
    </g>
  </g>
  <path class="uuid-4d3c34c3-f9a1-43f0-bd31-16eee41ab510" d="M34.95,226.8c-.02,1.21-1.02,2.18-2.23,2.16-.01,0-.03,0-.04,0h-12.4v62.81c-.02,1.21-1.02,2.18-2.23,2.16-.01,0-.03,0-.04,0-1.15.04-2.11-.85-2.15-2,0-.05,0-.1,0-.15v-62.81H3.35c-1.18.16-2.26-.67-2.42-1.85s.67-2.26,1.85-2.42c.19-.03.38-.03.57,0h29.33c1.21-.04,2.23.9,2.27,2.11,0,0,0,0,0,0Z"/>
  <path class="uuid-4d3c34c3-f9a1-43f0-bd31-16eee41ab510" d="M48.59,291.35v-64.55c-.16-1.01.53-1.96,1.54-2.12.19-.03.38-.03.57,0h22.68c1.47,0,2.15.68,2.15,2.12.16,1.03-.55,2-1.58,2.15-.19.03-.38.03-.57,0h-20.41v26.83h18.18c1.44,0,2.12.68,2.12,2.15s-.68,2.15-2.12,2.15h-18.18v29.1h20.41c1.03-.16,2,.55,2.15,1.58.03.19.03.38,0,.57,0,1.44-.68,2.12-2.15,2.12h-22.68c-1.01.16-1.96-.53-2.12-1.54-.03-.19-.03-.38,0-.57Z"/>
  <path class="uuid-4d3c34c3-f9a1-43f0-bd31-16eee41ab510" d="M88.73,278.24v-38.32c.02-8.66,7.06-15.67,15.72-15.65,5.55.01,10.69,2.96,13.5,7.75.67.86.52,2.09-.34,2.76-.14.11-.29.2-.45.27-.98.53-2.2.23-2.83-.68-2.56-4.44-7.78-6.61-12.74-5.29-4.98,1.31-8.46,5.81-8.47,10.96v38.32c-.04,6.26,5,11.37,11.26,11.42,4.11.03,7.92-2.17,9.94-5.75.61-1.02,1.91-1.37,2.95-.79,1,.42,1.48,1.57,1.06,2.57-.07.16-.16.31-.26.45-4.3,7.49-13.87,10.08-21.36,5.78-4.89-2.81-7.89-8.03-7.85-13.67l-.11-.11Z"/>
  <path class="uuid-4d3c34c3-f9a1-43f0-bd31-16eee41ab510" d="M160.57,226.35c-.02-1.15.89-2.1,2.04-2.12.04,0,.08,0,.12,0,1.19-.04,2.19.89,2.23,2.08,0,.01,0,.03,0,.04v65.42c0,1.19-.96,2.15-2.15,2.16-.03,0-.05,0-.08,0-1.15.04-2.11-.85-2.15-2,0-.05,0-.1,0-.15v-31.67h-22.68v31.67c-.02,1.21-1.02,2.18-2.23,2.16-.01,0-.03,0-.04,0-1.15.02-2.1-.89-2.12-2.04,0-.04,0-.08,0-.12v-65.42c-.02-1.15.89-2.1,2.04-2.12.03,0,.05,0,.08,0,1.21-.04,2.23.9,2.27,2.11,0,0,0,0,0,0v29.44h22.68v-29.44Z"/>
  <path class="uuid-4d3c34c3-f9a1-43f0-bd31-16eee41ab510" d="M214.92,292.68c-3.78-8.2-7.79-16.1-11.34-23.55-5.97-12.66-13.08-26.98-16.14-33.3v55.93c.16,1.03-.55,2-1.58,2.15-.19.03-.38.03-.57,0-1.47,0-2.12-.68-2.12-2.15v-65.42c-.13-1.04.6-1.98,1.64-2.11,0,0,.02,0,.03,0,.99-.22,2,.31,2.38,1.25,3.78,8.24,7.79,16.1,11.34,23.55,6.01,12.66,12.89,26.98,16.14,33.3v-55.97c0-1.44.68-2.12,2.15-2.12s2.15.68,2.15,2.12v65.42c.13,1.06-.62,2.02-1.67,2.15,0,0-.02,0-.03,0-.99.22-2-.31-2.38-1.25Z"/>
  <path class="uuid-4d3c34c3-f9a1-43f0-bd31-16eee41ab510" d="M237.25,291.77v-65.42c-.02-1.15.89-2.1,2.04-2.12.03,0,.05,0,.08,0,1.21-.04,2.23.9,2.27,2.11,0,0,0,0,0,0v65.42c-.02,1.21-1.02,2.18-2.23,2.16-.01,0-.03,0-.04,0-1.15.02-2.1-.89-2.12-2.04,0-.04,0-.08,0-.12Z"/>
  <path class="uuid-4d3c34c3-f9a1-43f0-bd31-16eee41ab510" d="M258.46,278.24v-38.32c.02-8.66,7.06-15.67,15.72-15.65,5.55.01,10.69,2.96,13.5,7.75.67.86.52,2.09-.34,2.76-.14.11-.29.2-.45.27-1.04.58-2.34.22-2.95-.79-2.56-4.44-7.78-6.61-12.74-5.29-4.98,1.31-8.46,5.81-8.47,10.96v38.32c-.04,6.26,5,11.37,11.26,11.42,4.11.03,7.92-2.17,9.94-5.75.61-1.02,1.91-1.37,2.95-.79,1,.42,1.48,1.57,1.06,2.57-.07.16-.16.31-.27.45-4.3,7.49-13.87,10.08-21.36,5.78-4.89-2.81-7.89-8.03-7.85-13.68h0Z"/>
  <path class="uuid-4d3c34c3-f9a1-43f0-bd31-16eee41ab510" d="M337.07,293.92c-1.14.34-2.34-.3-2.68-1.44-.01-.05-.03-.1-.04-.14-.34-1.21-.79-2.57-1.13-4.04-.79-2.61-1.47-5.97-2.68-10.17h-24.15c-1.25,4.19-2.04,7.56-2.83,10.17-.34,1.47-.79,2.83-1.13,4.04-.18,1.09-1.21,1.83-2.3,1.65-.09-.01-.18-.04-.27-.06-1.14-.24-1.87-1.37-1.63-2.51.01-.06.03-.12.04-.17l18.07-65.42c.25-.96,1.13-1.62,2.12-1.59.97-.02,1.83.64,2.04,1.59l18.03,65.42c.39,1.06-.16,2.23-1.22,2.62-.07.03-.14.05-.22.07ZM318.4,234.36c-1.78,6.88-6.88,25.17-10.81,39.38h21.66c-3.93-14.1-8.99-32.39-10.85-39.38Z"/>
  <path class="uuid-4d3c34c3-f9a1-43f0-bd31-16eee41ab510" d="M351.8,291.35v-65c.04-1.21,1.06-2.16,2.26-2.12,0,0,0,0,0,0,1.15-.04,2.11.85,2.15,2,0,.04,0,.08,0,.12v62.85h20.41c1.18-.16,2.26.67,2.42,1.85s-.67,2.26-1.85,2.42c-.19.03-.38.03-.57,0h-22.68c-1.17-.02-2.11-.95-2.15-2.12Z"/>
</svg>