<?xml version="1.0" encoding="UTF-8"?>
<svg xmlns="http://www.w3.org/2000/svg" version="1.1" viewBox="0 0 730 298.2">
  <defs>
    <style>
      .cls-1 {
        fill: #a4cf5f;
      }

      .cls-2 {
        fill: #047481;
      }

      .cls-3 {
        fill: #435464;
      }
    </style>
  </defs>
  <!-- Generator: Adobe Illustrator 28.7.1, SVG Export Plug-In . SVG Version: 1.2.0 Build 142)  -->
  <g>
    <g id="eed1427b-5c89-4b82-8d8d-2ababe57b427">
      <g>
        <g>
          <g>
            <path class="cls-1" d="M657.9,34.2c-4.1,1.4-8.1,3-12.1,4.8-3.9,1.8-7.7,3.8-11.3,6.1-7.1,4.3-13.4,10-18.3,16.8-2.6,3.8-4.7,8-6,12.4-1.9,3.8-3.3,7.8-4.1,11.9-.5,2.1-.9,4.2-1.1,6.4-.4,4.3,0,8.6,1.1,12.7.3,1.1.6,2,1,3.1,1.2,3.6,2.8,7,4.9,10.2,2.2,3.5,5,6.7,8.1,9.4,1.6,1.4,3.2,2.7,5,3.8l1.8,1.1c2.7,2.2,5.6,3.9,8.8,5.2,4.1,1.6,8.3,2.5,12.7,2.7,2.2.2,4.4.2,6.7,0l1.9-.2c5.5,1.3,11.3,1.6,16.9,1.1,8.7-.9,17.2-3.8,24.7-8.3,3.7-2.2,7.1-4.8,10.2-7.7,3.1-3,5.8-6.4,8.1-10.1,2.4-3.6,4.3-7.5,5.7-11.5,1.4-4.2,2.2-8.5,2.4-12.8.2-4.1-.2-8.2-1.1-12.1.3-2.1.5-4.2.5-6.3,0-4.3-.8-8.6-2.3-12.6-1.5-4-3.5-7.7-6-11.1-1.3-1.7-2.7-3.3-4.2-4.8-1.5-1.5-3.1-2.9-4.8-4.2-1.6-1.3-3.3-2.4-5.1-3.4-1.8-1.1-3.7-2-5.7-2.8-4-1.6-8.2-2.6-12.5-3.1-1.8-.2-3.5-.3-5.3-.3-7,.2-13.9,1.4-20.6,3.8M659.2,35.9c1.9-.6,3.8-1.1,5.8-1.5s3.2-.7,4.8-.9c-1.2.3-2.4.6-3.6,1-4,1.3-8,3-11.7,5h0c-4.1,1.3-8.1,3-12,5-3.8,1.9-7.5,4.1-10.9,6.6-4.2,3-8.1,6.4-11.6,10.2-2.1,2-4,4.2-5.8,6.6l1.2-2.3c.9-1.6,1.9-3.1,3.1-4.5,1.5-1.9,3-3.6,4.7-5.3,1.7-1.7,3.5-3.2,5.4-4.6,5.9-4.4,12.4-8.1,19.2-10.9,3.7-1.6,7.5-3,11.3-4.2M682,34.7h0M696.9,37.1c2.8,1.3,5.4,2.9,7.8,4.8,3.1,2.4,5.8,5.2,8.2,8.2,2.2,2.8,4,5.9,5.4,9.2.4,1,.8,2,1.1,3.1-2.9-7.6-7.8-14.2-14.2-19.2-1.2-1-2.5-1.9-3.8-2.7-1.4-1.3-2.9-2.4-4.4-3.4M694.4,41.1c-1.4-1.1-2.8-2-4.4-2.7,1.6.5,3.3,1,4.8,1.6,2.3,1,4.4,2.3,6.5,3.7.9,1,1.9,2,2.7,3.1s1.3,1.7,1.9,2.7c-.9-.8-1.8-1.5-2.7-2.2-1.9-1.4-3.9-2.7-6-3.8-.9-.8-1.8-1.6-2.7-2.3M679,40l1.5.3c-2.1-.1-4.1-.1-6.2,0,1.6-.2,3.1-.3,4.7-.3M690.1,47.1h.2c2,.9,3.8,1.9,5.5,3.2l1.4,1.2-1.4-1c-1.5-1-3-1.9-4.6-2.6-.3-.3-.7-.6-1.1-.8M654.9,49.3c-1,.4-1.9.9-2.8,1.3-2.1,1.1-4.1,2.2-6,3.4l-1.8.7c1.2-.8,2.5-1.6,3.8-2.3l2.2-1.2,1.6-.8,3.2-1.1M638.8,49.8c-1.4,1-2.9,2.1-4.3,3.3-6.6,5.4-12.1,11.9-16.4,19.2-2.1,3.6-3.8,7.5-5,11.6-1.1,3.6-1.7,7.3-1.9,11.1-.4-1.4-.7-2.9-.9-4.3-.4-3.3-.4-6.7,0-10.1,0-.6.2-1.3.3-1.9,1.8-3.9,4-7.6,6.7-11.1,3.6-4.5,7.7-8.5,12.2-12.1,1.4-1.1,2.8-2.1,4.3-3.1,1.6-.9,3.3-1.9,4.9-2.7M686.9,50.9l2.5.7.8.7c-1-.5-2.1-1-3.2-1.4M710.1,51.7l.6.8c1.6,2,3,4.2,4.2,6.5-.8-1.1-1.6-2.1-2.5-3.1l-.8-.9c-.5-1.1-1-2.2-1.5-3.3M672.3,56.9c2.7.4,5.3,1.1,7.8,2.1.8.3,1.6.7,2.3,1.1l-1.4-.5c-1.2-.4-2.5-.7-3.8-.9-.9-.3-1.8-.6-2.7-.8-1.2-.3-2.4-.5-3.6-.6-1.1-.1-2.2-.2-3.4-.2-2.4,0-4.8.2-7.1.6-1.8.3-3.5.7-5.3,1.2h-.5c-1.6.2-3.2.6-4.8,1.2l.3-.5.7-.5c3.5-1,7-1.8,10.5-2.3,3.5-.4,7.1-.4,10.6,0M699.7,58.9l1.4,1.7,1,1.4-1.4-1.6-.6-.7-.3-.8M637.5,60.6l-.9.8-1.2.8c.2-.2.4-.5.6-.7h0l1.5-.8M701.2,60.8h0M618.5,61.2h0M696.6,63.1v-.3h0c.2.5.3.9.5,1.4l-.6-1.3M617.2,67.5h0M691.6,76.7c-.4-2.2-1.2-4.4-2.2-6.4-.3-.5-.5-1-.8-1.5.9.8,1.8,1.6,2.6,2.5.4,1.2.7,2.5.9,3.8.3,2.1.3,4.3,0,6.5h0c0-1.7-.2-3.4-.5-5M703,71.5c0,.1,0,.2,0,.3.6,1.5,1.1,3.1,1.5,4.6,0,1.1-.2,2.2-.3,3.3s-.3,2.3-.6,3.4c-.1-.7-.3-1.3-.6-2,0-.5-.3-.9-.4-1.3.4-2.8.5-5.6.3-8.4M620.7,75.3c.7-1.2,1.5-2.3,2.3-3.4-.2.5-.4.9-.6,1.4l-.6.8c-1.2,1.7-2.2,3.4-3.1,5.3h0l.2-.5c.6-1.3,1.2-2.6,1.9-3.8M618.8,79h0M716.1,80.5c.2.8.3,1.7.5,2.5.2,1.3.2,2.6.2,4,0,.3,0,.6-.2,1,0-.5,0-1-.2-1.5,0-1.2-.4-2.5-.7-3.8s.3-1.5.4-2.3M663.7,81.1l.9.2.7.4.4.4.3.5c0,.2,0,.5.2.8,0,.4,0,.7,0,1.1,0,.5-.2,1-.4,1.5,0,.3-.3.5-.4.8l-.9.5c-.5.2-.9.3-1.4.4h-1.2l-1-.3-.7-.4-.3-.3-.2-.4c0-.2,0-.4,0-.6,0-.3,0-.6,0-.8,0-.4.2-.8.3-1.1.2-.4.4-.7.6-1.1l.8-.8c.3-.2.5-.3.8-.5.2,0,.5-.2.8-.2h.9M608.4,84.3v.9c0,4.3.6,8.5,1.8,12.6.3.9.6,1.8,1,2.7.3,4.7,1.4,9.3,3.1,13.6-.5-.5-.9-1.1-1.4-1.7-1.4-1.9-2.6-3.9-3.6-6.1-1-2.5-1.7-5.1-2.1-7.7-.4-3-.4-6,0-9,.3-1.8.6-3.7,1.1-5.4M610.3,90.3h0M613.2,91.1c0,.3,0,.6,0,.9,0,1.5.2,3.1.5,4.6,0,.8.3,1.5.5,2.3.4,2.2.9,4.3,1.7,6.4-1.1-1.8-2.1-3.6-2.9-5.5-.2-2.9,0-5.8.3-8.7M674.5,136.1c4.2-1.4,8.3-3.1,12.3-5.1,3.9-1.9,7.6-4.1,11.1-6.5,7-4.9,13-11.2,17.5-18.5,2.3-3.7,4.1-7.6,5.4-11.7.3-.8.5-1.7.7-2.5v1.9c-.6,3.9-1.6,7.7-3.1,11.3-1.8,4-4,7.8-6.7,11.3-2.9,3.7-6.3,7-10,9.9-4,3-8.4,5.6-13,7.6-4.7,1.9-9.6,3.3-14.6,4-2.2.3-4.4.4-6.7.4,2.4-.6,4.8-1.3,7.1-2.1M711.9,92.8l.3-.6c0,.7,0,1.4-.2,2.1-.3,1.7-.7,3.5-1.2,5.1-1.8,2.2-3.8,4.3-5.9,6.2,2.1-3.3,3.9-6.7,5.4-10.3.6-.8,1.1-1.7,1.6-2.6M616.3,94.1c.2,1.5.6,3,1.1,4.5.7,2,1.7,3.9,2.9,5.7,1,1.5,2.2,3,3.6,4.3.8,2.1,1.8,4.1,3,6l.5.7c-1.8-1.6-3.4-3.3-4.8-5.1-1.9-2.4-3.5-5.1-4.7-7.9l-.4-1c-.3-1.4-.6-2.8-.9-4.2s-.2-1.9-.2-2.9M645,95.5c.2.6.5,1.1.8,1.7l.4.8-.5-.5c-.2-.2-.3-.4-.4-.7,0-.4-.2-.7-.3-1.1v-.2M613.6,106.2c.6,1.1,1.3,2.2,2,3.2,1.5,2.1,3.1,4.2,4.9,6,1.4,2,2.9,3.9,4.5,5.6.8.9,1.6,1.7,2.5,2.5l-1.2-.5c-2.9-1.2-5.6-2.8-8-4.6h0c-.8-1.4-1.5-2.9-2.2-4.4-1-2.5-1.8-5.1-2.5-7.7M641.9,111.9c.9.2,1.7.4,2.6.5,1.2.2,2.4.3,3.6.3h1.7l1,.5c1.1.5,2.3,1,3.5,1.3.7.2,1.4.4,2,.5-1.3,0-2.6.2-4,.3s-1.7,0-2.5,0c-1.8-.3-3.6-.8-5.3-1.4-.4-.2-.8-.4-1.2-.6-.5-.4-.9-.8-1.4-1.2M616.6,121.2c.4.4.9.7,1.3,1.1l.8,1.3c-.7-.8-1.4-1.5-2.1-2.3M626.3,123.3h0M687,127c1.6-.6,3.3-1.2,4.8-1.9l-1.5.9c-3.1,1.7-6.2,3.2-9.4,4.6-7.4,3.1-15.1,5.3-23.1,6.5l-2.3.2h-.4l1.7-.3c4.3-.8,8.6-1.9,12.7-3.5,2.9-1.1,5.8-2.4,8.6-3.8,3-.7,5.9-1.6,8.8-2.6M622.9,125.5c3.3,1.7,6.8,2.9,10.4,3.8l1.3.3c.8.6,1.5,1.2,2.3,1.8,1.5,1.1,2.9,2.1,4.5,3.1h-1.1c-3.5-.5-6.8-1.4-10.1-2.7l-2.2-1c-1.9-1.5-3.6-3.2-5.2-5.1M645.6,133.8l1.3.3c1.2.2,2.4.4,3.6.6h-2.9l-2-1"/>
            <g>
              <path class="cls-2" d="M683.6,120.2h-.4c-.5.2-1,.5-1.4.8-.7.5-1.3,1.1-1.9,1.7l-.9,1c-.5.5-.9,1.1-1.3,1.7-.6,1.2-1.2,2.5-1.7,3.8h0v.3h0l-.5,1.1v-.3c0,.3-.2.5-.3.8h0l-.3.6-.3.6-.5,1.1-1.8,4.4-1.6,4.2c0-2.7-.3-5.4-.3-8.2v-15.7c0-.3,0-.4-.2-.4h0l-.6.3c-.6.4-1.2.8-1.7,1.2l-1.4,1.4c0-2.8,0-5.5.3-8.2v-.7c0-.2,0-.5-.3-.5h-.2l-.8.3c-.8.5-1.5,1-2.2,1.6-.9.8-1.7,1.6-2.5,2.5-.3.4-.6.8-.9,1.2-.4.5-.8,1.1-1,1.8-.5,6.3-.4,12.6-.5,18.9,0,5.7,0,11.5.3,17.3,0,3.2.4,6.3.6,9.4v1.5l-.3,1c-.6,1.4-1.3,2.7-1.8,4.1-.2.4-.3.8-.3,1.2,0,.3,0,.6,0,.9.1.4.3.7.6,1l.7.5.7.3c.3,0,.5.2.8.2.5,0,1,.2,1.4.2h1.1c2.9,0,5.8-.2,8.6-.7h1.5c.5-.1,1-.3,1.4-.5.4-.2.8-.5,1.1-.8.4-.3.7-.8,1-1.2.1-.2.2-.3.3-.5.2-.4.4-.8.5-1.2.2-.6.2-1.1,0-1.7-.2-.6-.5-1.1-.9-1.5-.2-.2-.5-.4-.7-.6h-.3l-.5-.3-1.5-1h0c0-.4-.2-.7-.5-1-.1-.2-.3-.4-.5-.6,0-.1-.2-.2-.3-.4v-2.4c0-2.5,0-5.1-.3-7.6v-.8c.2-.6.4-1.3.6-1.9.5-1.4.9-2.8,1.4-4.2.9-2.7,1.8-5.4,2.8-8s1.9-5,2.8-7.6c.4-1.1.9-2.2,1.4-3.3.1-.2.2-.4.2-.6l.8-1.9c.1-.2.2-.4.3-.6.5-1,.9-2,1.4-3.1.4-.2.5-.7.5-1.1ZM663.7,171.3h.5-.5ZM672.4,169.9l-.2.3h-.5v-.3c0-.2,0-.3,0-.5l.7.5Z"/>
              <polygon class="cls-2" points="676 129.2 676 129.2 676 129.2 676 129.2"/>
              <polygon class="cls-2" points="676 129.1 676 129.2 676 129.1 676 129.1"/>
              <path class="cls-2" d="M676.2,128.9h0Z"/>
              <path class="cls-2" d="M676.1,129h0Z"/>
            </g>
          </g>
          <g>
            <path class="cls-2" d="M504.2,119.2c-.6.6-.6,1.6,0,2.3.8.7,1.5,1.5,2.1,2.4l1.5,2,.9,1.3c.3.5.6.9.9,1.4l1.6,2.6c.5.8,1,1.7,1.5,2.5l.8,1.5,1.1,2.2,1.1,2.3,1,2c0,0,0,.2,0,.3.1.2.4.2.6.2.2,0,.4,0,.5-.2.1,0,.2-.2.2-.3,0-.1,0-.3,0-.4,0-.2,0-.4,0-.6v-.3l-.3-1-.5-1.1h0v-.5c0-.7,0-1.3,0-2,0-.2-.3-.2-.3,0s0,1.1,0,1.6l-.3-.8-.6-1.2c-.4-.8-.8-1.7-1.2-2.6l-1.4-2.6-1.5-2.6-1.7-2.8-1.5-2.5-.8-1.1c0-.2-.3-.4-.4-.6v-.2l-.5-.6-.5-.5c-.3-.3-.7-.5-1.2-.5-.4,0-.8.2-1.1.5"/>
            <path class="cls-1" d="M525,22.8c-4.5.6-8.9,1.6-13.2,3.1-2.2.8-4.4,1.6-6.6,2.5l-3,1.1c-2.7.6-5.4,1.3-8,2.3-4.1,1.5-8,3.4-11.7,5.7-7.3,4.5-13.5,10.6-18.1,17.8-1.5,2.3-2.7,4.8-3.8,7.3-1.1,2.1-2,4.3-2.8,6.5-.3.8-.5,1.6-.8,2.4-.8,1.6-1.4,3.3-2,5-1.4,4.2-2.3,8.5-2.8,12.9-.4,4.5-.3,9,.4,13.4.7,4.3,2,8.4,3.8,12.4,1.8,3.9,4.2,7.4,7.2,10.4,3,3,6.6,5.4,10.4,7.1,2.6,1.2,5.3,2.2,8.1,2.8l1.7,1.1c3.8,2.2,7.8,4,12,5.2,2.2.6,4.4,1.1,6.6,1.4,2.3.4,4.6.6,6.9.8,4.6.2,9.2,0,13.7-.9,4.4-.8,8.8-2,12.9-3.8,8.1-3.6,15.4-8.7,21.5-15.1,2.9-3,5.6-6.2,8.1-9.5h.4c4.1-1.6,8.1-3.7,11.8-6,3.6-2.3,6.9-5.1,9.7-8.3,2.8-3.3,4.9-7.2,6.1-11.3.6-2.1.9-4.3,1.1-6.5.1-2.2,0-4.4-.4-6.6-.7-4.3-2.3-8.4-4.5-12.1-1.3-2.3-2.9-4.4-4.6-6.4-.4-1.9-1-3.7-1.8-5.4-.8-2-1.8-3.9-2.9-5.6-2.3-3.5-5.1-6.6-8.4-9.2-3.5-2.6-7.3-4.7-11.3-6.2-2.7-1-5.5-1.8-8.4-2.3-.7-.5-1.4-.8-2.2-1.2-3.9-1.9-8-3.2-12.2-3.8-2.3-.3-4.7-.5-7.1-.5-2.1,0-4.2.1-6.3.4M559.8,33l1.8.7c3.2,1.4,6.3,3.2,9.1,5.3,2.5,1.9,4.7,4.2,6.6,6.6,1.5,2,2.7,4.1,3.8,6.3-.8-1-1.7-2-2.7-2.9-.7-.6-1.4-1.2-2.1-1.7s-.8-1.1-1.2-1.5c-3.6-4.6-8-8.3-13.1-11.1-.7-.5-1.4-1.1-2.2-1.6M504.2,38.2l-2.9,1.7-3.3,1.2h-.4c1.9-1,3.8-2,5.9-2.8l.8-.3M497.4,38.5c-4.6,2.4-8.9,5.4-12.8,8.8-1.2,1.1-2.4,2.3-3.5,3.6-1.5,1.3-3,2.6-4.3,4h0c1.3-1.7,2.8-3.3,4.3-4.8,1.8-1.8,3.7-3.4,5.7-5,3.1-2.4,6.4-4.5,9.8-6.3l.8-.3M496.7,38.7h-.2.2M480,43.5c-1.7,1.5-3.3,3-4.8,4.6-2.8,2.4-5.3,5.1-7.6,8.1-1.8,1.9-3.6,4-5.2,6.1.3-.7.6-1.4,1-2,.9-1.5,1.9-2.9,2.9-4.2,1.6-2,3.3-3.9,5.2-5.7,1.8-1.8,3.8-3.5,5.8-5,.8-.6,1.7-1.2,2.5-1.9M486.8,45h0M477.3,45.4h0M513.6,46.9c2.1-.6,4.2-1,6.3-1.3h0l3,.3,1.9.3c-1.9.1-3.8.4-5.7.8-4.5.9-8.8,2.4-12.8,4.5-3.9,2-7.4,4.5-10.5,7.6-3.2,3.1-5.8,6.6-7.8,10.5-1.6,3.1-2.7,6.4-3.4,9.8-.2-1.7-.2-3.5,0-5.2.3-2.1.9-4.3,1.7-6.3,1-2.3,2.3-4.4,3.8-6.4,2.1-2.4,4.5-4.6,7.2-6.5,3.2-2.4,6.8-4.4,10.5-6,2.1-.9,4.2-1.6,6.3-2.2M553.9,51.2c1.2.9,2.3,1.9,3.3,3h-.7l-.3-.4c-.6-.7-1.2-1.3-1.9-1.9l-.5-.7M480.1,57.3c-.8,1.1-1.6,2.2-2.4,3.4-.7,1.1-1.3,2.2-1.9,3.3l.5-1.1c.6-1.3,1.2-2.6,1.9-3.8l1.9-1.7M582.4,58.6l.2.3c.3.7.7,1.4,1,2.1s.8,2.2,1.2,3.3,0,1.7,0,2.6v1.8c0-.3-.2-.5-.3-.8,0-1.3-.3-2.6-.6-3.8-.4-1.8-.9-3.6-1.6-5.3h0M522.1,59.8c1.1.1,2.2.4,3.3.8l1.4.8.5.5h0c-1.2-.4-2.5-.6-3.8-.7-1.1,0-2.2,0-3.4,0h-1.4c-1.1,0-2.2,0-3.3,0h-.5l.5-.4h.4l3.4-1.2c1,0,1.9,0,2.9,0M467.4,60.6c-.3.7-.6,1.4-.9,2.1-.8,1.5-1.6,3.1-2.3,4.6l.8-2.2c.7-1.6,1.5-3.1,2.3-4.6M539.4,61.8l.9.5c.3.5.6,1,.9,1.6.3.8.5,1.6.7,2.5v1.4c-1.7.6-3.4,1.3-5.1,2.1l-.2-.5c-.3-.5-.6-1-.9-1.4-.3-.5-.6-.9-1-1.3.3-1,.5-2,.6-3.1v-.5c1.3-.5,2.7-.9,4-1.3M461.1,67.2c.9-1.6,1.9-3.1,3-4.5-.3.6-.6,1.1-.8,1.7-1.7,4-2.7,8.3-2.9,12.7v3.5c-.3,1.9-.5,3.7-.6,5.6v-.3c-.5-3.8-.5-7.6,0-11.3.3-2.4.9-4.8,1.5-7.1h0M562.3,64.5l.3,1.7h-.7l.3-1.5M473.2,65.1c0,.6-.4,1.1-.5,1.7,0-.5.2-.9.3-1.3l.2-.3M570.6,66.1c.1.2.2.4.3.6,0,1.1,0,2.3,0,3.4l-.3-.2c0-1.3,0-2.5,0-3.8M573.2,107.7c6.2-6.4,10.9-14.2,13.7-22.7,1.3-4.2,1.9-8.6,1.9-13,0-1.4-.1-2.9-.3-4.3.4.7.7,1.5,1.1,2.2,1,2.5,1.8,5.2,2.2,7.9.7,4.9,0,9.9-1.9,14.4-.9,2.1-2,4-3.4,5.8-1.9,2.4-4.1,4.5-6.5,6.4-1.9,1.4-3.9,2.7-5.9,3.8-1,.6-2.1,1.2-3.2,1.7l2.3-2.5M464.7,69.4c0,.5-.2.9-.3,1.3s-.3,1.9-.4,2.8-.3,1.9-.4,2.8c-.3,2.1-.4,4.3-.4,6.5,0-.5-.2-1.1-.3-1.5-.2-2-.2-4.1,0-6.1.5-1.9,1.2-3.8,1.9-5.7M483,70.5c-.6,2.3-1,4.6-1,7,0,1.1,0,2.2.3,3.3.1,1.1.4,2.2.7,3.3.5,1.7,1.2,3.4,2.2,5,0,.2,0,.4,0,.6.3,2.2,1,4.2,2,6.2h0l-1.2-.7c-.5-.5-1-1.1-1.5-1.7-1-1.3-1.9-2.8-2.5-4.3-.7-1.8-1.2-3.6-1.5-5.5v-.9c0-1.1,0-2.2.2-3.3.5-3,1.3-6,2.4-8.8M521.1,70.9l1.1.4c.6.3,1.2.6,1.7.9-1.6,1.9-3.5,3.6-5.4,5.2l-.3.2c0-.3,0-.5,0-.8,0-.6,0-1.2,0-1.7,0-.7.3-1.3.5-1.9l.2-.4,1.7-1.4.7-.5M562.2,72.3v-.6c.3,0,.6.1.8.2v1.6l-.3,2c-.7,1.3-1.5,2.6-2.4,3.8v-.5c1-2,1.6-4.1,2-6.3M492,72.9c0,.5-.2.9-.3,1.4h0l-.5.7h0l.3-.9.6-1.4M586.6,73c0,1.6,0,3.2-.3,4.7-.5,3.6-1.4,7.1-2.8,10.4-.9,2.1-1.9,4.1-3.1,6.1-1.2,2-2.4,3.8-3.8,5.7-.8.9-1.5,1.9-2.3,2.8h0c.6-1.1,1.1-2.3,1.6-3.5.3-.5.7-.9,1-1.4,1.2-1.8,2.3-3.6,3.4-5.4s2-3.8,2.9-5.8c.9-2.1,1.6-4.2,2.3-6.3.5-1.7.8-3.5,1-5.3l.3-1.9M508.5,73.3c-.2.6-.5,1.2-.6,1.8-.3,1.1-.5,2.3-.6,3.4-.2,1.1-.2,2.2,0,3.3-.5.8-1,1.7-1.5,2.5h-.2c-.3-.5-.6-1-.8-1.6-.5-1.2-.8-2.5-1-3.8,0-.7,0-1.3,0-2,.9-.9,1.8-1.7,2.8-2.5.6-.5,1.3-1,2-1.4M541.2,74.1c-.7,1.3-1.4,2.6-2.3,3.8l-.6.7c.3-1.2.4-2.3.5-3.5l1-.5,1.4-.5M516.4,75.2c-.2,1.2,0,2.4.3,3.6l-.3.2c-.2-.7-.4-1.4-.5-2.1,0-.4,0-.7,0-1.1.2,0,.4-.4.6-.6M470.6,77.4c0,.4,0,.7,0,1.1,0,1.2.3,2.5.6,3.8v.6c0-.6-.3-1.2-.4-1.9,0-1.1,0-2.3,0-3.4M513.2,79.2c.2.6.4,1.1.6,1.6h0l-1.9.9c0-.2,0-.4,0-.6,0-.1,0-.2,0-.3.2-.3.3-.5.5-.7l.8-1M457,80.8v1.3c-.7,10.6,2.6,21.1,9.1,29.5.7,2,1.5,4.1,2.5,6,1.1,2.1,2.4,4.2,3.8,6.2-.9-.6-1.8-1.1-2.6-1.8-2.3-1.8-4.3-3.8-6-6.1-1.9-2.5-3.4-5.1-4.6-8-1.3-3.2-2.2-6.6-2.7-10-.5-4.2-.5-8.4,0-12.6.2-1.5.5-3.1.9-4.6M476.6,82.9c0,1.6,0,3.2.2,4.7-.2-.5-.3-1-.5-1.5,0-.2,0-.5,0-.7v-1.8c0-.3,0-.5,0-.8M476.4,83.4h0ZM560.3,96.9c3.1-2.9,5.9-6.2,8.1-9.9.7-1.1,1.4-2.2,1.9-3.4-.3.7-.5,1.4-.8,2.2-1.6,3.7-3.6,7.1-6.1,10.3-.7.9-1.4,1.8-2.2,2.6-.6.4-1.1.7-1.7,1l-2.1,1.1c.4-.8.8-1.5,1.1-2.3s1.2-1,1.8-1.6M462.2,87v-2.8c.3,1.6.7,3.1,1.3,4.6v6.2c-.3-.7-.5-1.3-.7-2v-1.1c-.2-1.7-.3-3.5-.3-5.2M456.6,85.1h0M456.6,85.1h0M459.4,86.6c.5,3.5,1.4,7,2.8,10.3.2,1.1.5,2.3.9,3.4-.2-.4-.4-.7-.5-1.1-1.4-3.4-2.4-7-2.9-10.7,0-.6,0-1.3-.2-1.9M584.5,87.5v.2-.2M554.3,90.5c1.2-.8,2.3-1.7,3.4-2.6v.7c-.8.9-1.5,1.8-2.4,2.6l-.2.2-2.2,1.8c-2.2,1.5-4.5,2.8-6.9,4l.6-.7c1.1-.9,2.2-1.9,3.3-2.9s3-1.9,4.5-2.9M570,96.2c1.1-.9,2.1-1.9,3.1-2.8-.5,1.1-1.1,2.2-1.8,3.2-.5.5-1.1.9-1.6,1.3s-2.2,1.5-3.3,2.3c1.2-1.2,2.3-2.5,3.3-3.8l.3-.2M468,96.2c1.2,2.9,2.7,5.5,4.5,8,.6,2.4,1.3,4.7,2.3,6.9-.8-.7-1.5-1.4-2.2-2.2-.8-1.4-1.6-2.9-2.2-4.4-1.1-2.7-1.9-5.5-2.4-8.4M457,97.8h0M470.4,104.7h0M562.3,106.1l2.3-1.2c-.6.6-1.3,1.2-2,1.7l-2.5,1.8c-2.2,1.5-4.5,2.9-6.8,4.3l-.7.4c-1.5.8-3.1,1.5-4.8,2.2s-3.8,1.4-5.5,2.1c.9-.6,1.8-1.2,2.6-1.9,1.4-.8,2.8-1.7,4.2-2.6s2.5-1.7,3.8-2.6h0l.6-.3c3-1.1,5.8-2.4,8.7-3.8M475.1,107.3c1.2,1.2,2.4,2.3,3.8,3.4,1.3,1,2.6,1.9,4.1,2.6,1.2,1.2,2.4,2.4,3.8,3.4-2.6-.4-5.1-1.1-7.6-2.1h0l-.8-.5c-.9-1.6-1.8-3.2-2.5-4.9-.3-.6-.5-1.2-.7-1.9M484.6,108.7c1.9.7,3.8,1.3,5.8,1.7l2.6,1.2v.3c0,.6,0,1.1.3,1.7l-2.1-.8c-1.5-.7-3-1.4-4.5-2.2h0c-.7-.6-1.4-1.2-2-1.8M461.2,116.1c-.8-1.4-1.5-2.9-2.2-4.4,1.1,2.4,2.5,4.6,4,6.7,2.6,3.4,5.7,6.3,9.4,8.6,1.8,1.2,3.8,2.2,5.8,3,.5.6,1.1,1.1,1.7,1.6l-1.9-.7c-3-1.3-5.8-2.9-8.4-4.8-2.1-1.7-4-3.6-5.7-5.7-1-1.3-2-2.7-2.8-4.2M496,112.8l2.7.8,2.2,1.2c-1.2,0-2.4-.2-3.6-.3h-.8c0-.5-.3-1-.4-1.5M473,118.1c1.4,1.3,3,2.5,4.5,3.6,1.8,1.2,3.6,2.3,5.5,3.3l2.1,1c1.8,1.6,3.7,2.9,5.8,4.1h0c-1.8-.3-3.8-.7-5.4-1.1-2-.5-3.9-1.1-5.8-1.8-1.2-1.2-2.2-2.5-3.3-3.8-1.3-1.7-2.5-3.5-3.5-5.4M507,120.6h0v.2h-.8.7M530,134.5c4.4-1,8.6-2.3,12.8-4,4-1.6,7.9-3.6,11.6-5.8-1.4,1.3-2.9,2.6-4.4,3.8-4.3,3.3-9,6.1-13.9,8.2-4.4,1.8-9,3.1-13.7,3.8-7.4,1-15,.5-22.2-1.5-1.9-.5-3.8-1.1-5.5-1.8,2.7.2,5.4.2,8.1,0,3.3-.2,6.5-.6,9.7-1.2h2.8c5,0,10-.6,14.8-1.7M494.5,129l1,.2c2.7.5,5.5.8,8.3.9.6.4,1.3.7,1.9,1h-5.2c-1.9-.5-3.8-1.1-5.7-1.9l-.4-.2M477.6,131h0M486,132.7c5,1.2,10.2,1.7,15.4,1.7l.9.3h-3.2c-3,0-6-.2-9-.5l-2.3-.3-1.9-1.2M489.8,134.1h0"/>
            <path class="cls-2" d="M530.9,173.4c0-.3-.1-.7-.3-1,0-.3-.2-.6-.4-1h0v-2.8c-.2-3.1-.4-6.2-.6-9.3-.4-6-.7-11.9-1.1-17.9-.3-5.9-.5-11.7-.7-17.5v-7.3c0-.1,0-.3,0-.4h-.2c-.3,0-.6.1-.9.3-.7.4-1.3.9-1.9,1.4-.7.7-1.4,1.4-2.1,2.1-.9.9-1.5,2-1.9,3.2-.3,1.4-.4,2.9-.5,4.3v1.4l-1.1,1c0,0-.1,0-.2,0v-12.6h0c0,0,0-.1,0-.2h0c-.3,0-.8.4-.9.5-.6.5-1.2,1-1.7,1.5l-.4.5c-.2.2-.4.5-.5.8-.2,3.3-.3,6.5-.4,9.8s0,6.3,0,9.5v18c0,4.5,0,9,.2,13.5-.2.3-.4.6-.5,1v2.3c0,.8-.3.5-.4.7-.6,1.1-1.1,2.2-1.6,3.4l-.2.7v.5c0,.5,0,1,0,1.5,0,.2,0,.3,0,.5,0,.3.2.5.3.8.2.4.5.7.9.9l.6.3h0c.4.1.8.1,1.2,0,.4,0,.8-.2,1.1-.5l.7-.4,1.1-.5c1.3-.5,2.7-.8,4.1-1.2s2.7-.9,4.1-1.2l1.9-.5.9-.4c.6-.2,1-.7,1.4-1.2.2-.4.4-.8.6-1.2.2-.5.3-1.1.3-1.6-.3-.6-.7-1.1-1.1-1.6Z"/>
          </g>
          <g>
            <path class="cls-1" d="M382.5,27.3c-1.1,0-2.3,0-3.4.3h-.2c-2.3,0-4.5.2-6.8.6-2.2.3-4.3.8-6.4,1.4-2.1.6-4.2,1.2-6.2,1.9-4.1,1.4-8,3.3-11.6,5.7-1.8,1.2-3.6,2.5-5.3,3.8-1.6,1.3-3.2,2.7-4.7,4.2-1.5,1.5-2.9,3.1-4.1,4.8-1.1,1.6-2.2,3.4-3.1,5.1-1,1.4-2,2.8-2.9,4.3s-2.1,3.8-3,5.5c-1.8,3.9-2.9,8.1-3.3,12.4v.4c-.2.8-.3,1.5-.5,2.3-.7,4.2-.8,8.5-.2,12.8.3,2.1.8,4.1,1.5,6.1.7,2,1.6,3.9,2.6,5.8,1,1.8,2.1,3.5,3.4,5.2,1.3,1.6,2.6,3.2,4,4.7,2.9,3,6.1,5.6,9.6,7.9,3.5,2.4,7.3,4.3,11.3,5.7,2.6.9,5.4,1.7,8.1,2.1,4.1,1.8,8.3,3.2,12.7,4.2,8.7,2,17.7,1.6,26.2-1.2,4.1-1.3,8.1-3.1,11.9-5.3,1.8-1.1,3.5-2.3,5.2-3.6,1.7-1.3,3.4-2.7,5-4.3,6.2-6.2,10.7-13.9,13-22.3,1.2-4.3,1.8-8.7,1.9-13.2,0-4.4-.5-8.9-1.7-13.2-2.3-8.4-6.6-16.2-12.4-22.7-2.7-3.1-5.9-5.8-9.4-8-.8-.5-1.6-.9-2.5-1.3-1.5-1.6-3.2-3-4.9-4.3-1.7-1.3-3.4-2.4-5.2-3.4-1.9-1-3.9-1.9-6-2.6-3.8-1.3-7.8-1.9-11.8-1.9h-1.1M378.1,30.7c-2.4.2-4.8.6-7.1,1.2l-.9.2.6-.2c1.5-.5,3.2-.9,4.8-1.2h2.6M382.5,34.8c2.6.4,5.1,1,7.6,1.9l-3.4.6c-4-.7-8.1-.8-12.1-.4-4.3.5-8.5,1.5-12.5,3.1-3.9,1.6-7.7,3.6-11.3,5.9-1.9,1.2-3.6,2.4-5.4,3.8-1.7,1.3-3.3,2.7-4.8,4.2l-.6.6c1-1.2,2.1-2.4,3.3-3.5,1.7-1.6,3.4-3.1,5.2-4.5,2.4-1.9,4.9-3.6,7.6-5.2,2.3-1.4,4.8-2.7,7.3-3.8l3.1-1c2.4-.7,4.8-1.3,7.3-1.6,3-.4,6-.4,8.9,0M392.4,35.2l2.1.8.8.3h0l-2.6-1.1M395.5,39.2c.6.3,1.1.6,1.7.9l-2.6-.9h.9M400.5,39.3h.4c.9.6,1.7,1.2,2.6,1.8,1.6,1.2,3.1,2.6,4.5,4l-.4-.3c-2.2-2.1-4.6-4-7.1-5.6M377.6,39.2h1.6l-3.1,1.1-2.1.8c-1.7.3-3.3.8-5,1.4-2.1.7-4.1,1.6-6,2.5-1.9.9-3.8,2-5.7,3.1-1,.6-2,1.3-2.9,2-1.6.5-3.1,1.1-4.6,1.9-3.9,1.8-7.4,4.3-10.4,7.3-1.5,1.5-2.9,3.2-4.1,5-1,1.5-1.8,3-2.5,4.6,0-.5.2-1.1.4-1.6s.4-1.4.7-2.1c1-1.7,2.1-3.4,3.3-5,2.6-3.4,5.6-6.5,9-9.1,2.3-1.7,4.7-3.3,7.3-4.7,2.5-1.4,5-2.6,7.6-3.8,1.8-.8,3.6-1.4,5.5-2,1.8-.5,3.7-.9,5.6-1.1,1.8-.2,3.5-.3,5.3-.3M394.1,43.8c-1.2-.6-2.5-1.1-3.8-1.5h1.2c1.2.2,2.4.4,3.6.7s3.3,1.5,4.9,2.3l-.6-.2c-1.3-.4-2.6-.7-4-.9l-1.2-.5M343.6,48.4h0M335.8,55.8c-.3.4-.6.9-.9,1.3-1.1,1.8-2.1,3.8-2.9,5.8-.6,1.4-1.1,2.9-1.5,4.4-.6,1.1-1.1,2.3-1.5,3.5v-1c.4-2.7,1-5.4,1.9-7.9l1.8-2.5c.9-1.2,2-2.4,3-3.6M428.1,63.7c-.7-2.2-1.5-4.3-2.5-6.4l-.2-.5c1.6,2.6,3,5.3,4.2,8.1,1.4,3.3,2.4,6.7,3.1,10.2,0-.4-.3-.8-.4-1.2-.7-2.1-1.6-4.1-2.7-6.1l-.6-1c-.2-1.1-.5-2.2-.8-3.2M348.8,59.5c-.8.9-1.5,1.8-2.2,2.8-1.1,1.6-2.1,3.3-2.9,5.1h0c-.6,1-1,2-1.4,3.1-.8,2-1.4,4-1.9,6.1-.5,2.2-.8,4.4-.9,6.7-.1,2.3,0,4.6.3,6.9v.6c-1.5-4-2-8.3-1.4-12.6.4-2.7,1.1-5.3,2.2-7.9,1.2-2.8,2.8-5.4,4.6-7.9l1-1.2.3-.2,2.4-1.7M375,62.1l-.8.5c-.8.6-1.5,1.1-2.2,1.8-1,.3-2,.7-3,1.2-.6.3-1.2.6-1.8,1,.5-.8,1.1-1.6,1.7-2.3l.4-.5c1.8-.7,3.7-1.2,5.7-1.7M325.9,70.9c0,1.1-.2,2.2-.2,3.3,0,2.2.1,4.4.5,6.7,0,.8.3,1.6.4,2.4,0,1.4,0,2.8.2,4.2.4,3.9,1.4,7.8,3.1,11.3-1.1-1.8-2-3.6-2.8-5.6-1.3-3.1-2.2-6.3-2.7-9.6-.3-2.5-.3-5,0-7.6.4-1.6.9-3.1,1.6-4.6h0M336.7,73c-.6,1.9-1,3.8-1.2,5.7-.3,2.1-.3,4.2,0,6.3.2,2.1.7,4.3,1.3,6.3,0,.2.1.4.2.6-.9-1.4-1.8-2.9-2.5-4.5,0-.6-.3-1.3-.3-1.9-.2-2-.2-3.9,0-5.9.3-1.3.8-2.6,1.3-3.8.4-.9.9-1.9,1.4-2.8M329.4,76.9c0,1.5.1,3,.4,4.5,0,.4,0,.7,0,1.1h0c0-.9-.3-1.7-.5-2.5s0-1.1,0-1.7,0-.9.3-1.4M412.8,89.8c1.3-1.9,2.4-3.9,3.2-6,.3-.8.6-1.6.8-2.5,0,1.4,0,2.7-.3,4.1-.5,3.2-1.4,6.4-2.6,9.4-1.4,3.3-3.2,6.4-5.3,9.2-2,1.3-4.2,2.4-6.4,3.3-2.3,1-4.8,1.7-7.2,2.3,1.9-.8,3.8-1.8,5.4-3,1.9-1.4,3.7-3,5.2-4.8.8-1,1.5-2.1,2.2-3.1.6-.9,1.1-1.9,1.5-2.9.4-.9.8-1.8,1.1-2.8.7-.8,1.4-1.7,1.9-2.6l.5-.6M431.9,93.9c.8-1.8,1.4-3.6,1.9-5.5,0,.5,0,1-.2,1.5-.6,4.3-1.7,8.6-3.4,12.6-1.7,3.8-3.7,7.4-6.2,10.7-2.6,3.3-5.5,6.3-8.8,8.8-3.8,2.9-7.9,5.3-12.3,7.2-4.1,1.7-8.4,2.9-12.8,3.6-4,.5-8.1.5-12.1,0-2.6-.4-5.1-.9-7.6-1.6,2.7-.1,5.5-.5,8.1-1.2,4.3.7,8.6.7,12.9,0,4.4-.7,8.7-2,12.7-3.8,4-1.8,7.7-4,11.1-6.7,3.4-2.6,6.4-5.8,8.8-9.4,1.2-1.7,2.2-3.6,3-5.5.8-1.7,1.4-3.4,1.9-5.2,1.2-1.6,2.2-3.4,3-5.2M323.1,89c1.9,6.7,5.2,12.9,9.6,18.3,2.6,3.4,5.5,6.6,8.7,9.5,3.1,2.9,6.5,5.6,10,8l1,.7-.8-.3c-4.1-1.8-8-4.1-11.6-6.8-1.8-1.4-3.4-2.8-5-4.4-1.6-1.5-3-3.2-4.3-4.9-1-1.3-1.9-2.7-2.8-4.1-.9-1.5-1.6-3-2.3-4.6-.5-1.2-.9-2.4-1.3-3.8-.4-1.3-.6-2.7-.8-4.1,0-1.2-.3-2.4-.3-3.8M345.2,98.1c.2.3.4.6.7.9s.2,1,.3,1.5c0-.4-.3-.8-.5-1.1s-.4-.9-.5-1.3M351.2,104.5c.3.2.6.5,1,.7,1.4,1,3,1.8,4.6,2.5l1.1.5c.2.4.3.7.6,1.1l.4.6c-2.3-1.1-4.6-2.3-6.7-3.6l-.9-1.9M348.7,111.4l1.4.8c.1.2.3.4.4.5l-1.5-1.1-.3-.3M395.5,115.5l-2.5,1.5c-1.4.3-2.7.5-4.1.7-1.9.3-3.9.4-5.8.4,2.5-.2,5.1-.7,7.6-1.2,1.5-.4,3-.8,4.5-1.3h.4M339.5,117.8h0M364.1,118.2c3.9,1.2,7.9,2.1,11.9,2.6,1.2.2,2.5.3,3.8.3-1.5.2-3,.3-4.5.3-1.6,0-3.2-.1-4.7-.3l-1.2-.2c-1.8-.8-3.5-1.7-5.2-2.6M350.3,121.1c2.4,1.4,4.8,2.7,7.3,3.8,3.2,1.4,6.5,2.5,9.9,3.3-1.6,0-3.1-.1-4.7-.3l-1.6-.3c-3.8-1.8-7.5-4-10.9-6.6"/>
            <path class="cls-2" d="M394.1,173.9c0-.3-.2-.6-.4-.8-.2-.3-.4-.6-.7-.9l-.8-.7h0c-.2-.6-.4-1.2-.6-1.8.2-.2.3-.4.4-.6.5-.9.4-2.1-.3-2.8-.4-.4-.8-.6-1.4-.7l-.5-1.5-.6-2.1c0-.6-.3-1.2-.5-1.9-.3-1.4-.6-2.9-.8-4.3,0-.2,0-.4,0-.6v-.6c0-.2-.2-.4-.3-.6v-11.2c0-5.7.3-11.3.4-17.2v-10c0-1.6-.3-3.3-.5-4.9h-.3c-.3,0-.6.1-.8.3l-1,.7c-.5.4-1,.8-1.5,1.2v-2.4c0-.8,0-.5-.3-.5h0l-.7.3c-.7.4-1.4.9-2,1.5-.4.3-.7.7-1.1,1.1v-6.8c0-.3,0-.5-.3-.5h-.2l-.6.3c-.7.4-1.3.9-1.9,1.4-.7.7-1.4,1.4-2.1,2.1l-.8,1c-.4.4-.7,1-.9,1.5v16.4c-.9-1.6-2-3.1-3-4.6s-2.6-3.8-4-5.4c-.3-.3-.6-.5-.9-.6h-.6c-.4,0-.7.1-1.1.3-.5.3-.9.7-1,1.3-.2.5,0,1.1.2,1.6,1.7,2.3,3.4,4.7,5,7.1.8,1.2,1.6,2.5,2.3,3.8s1.3,2.6,1.9,3.8c.3.6.5,1.1.7,1.7l.2.5h0c0,3.5,0,7-.2,10.5v11.6l-1,3.4c-.9,2.9-1.8,5.9-2.5,8.9-.2.5-.3,1-.3,1.6,0,.3,0,.6,0,.9,0,.3.2.5.4.8h0c0,.5,0,1.1.3,1.6.1.2.3.5.5.6l.4.3.7.3h1.8l2.5-.4c1.2-.2,2.4-.5,3.8-.7,2.6-.3,5.3-.3,8-.4h2.1c.7,0,1.3,0,2,0l1.4-.2h.6l.8-.4c.5-.3.9-.8,1.1-1.4-.2-.5-.5-1-1-1.3Z"/>
          </g>
        </g>
        <g>
          <g>
            <path class="cls-3" d="M48.8,6.8c.1,2.3-1.6,4.2-3.8,4.3-.1,0-.3,0-.4,0h-13.2v72.9c.1,2.3-1.6,4.2-3.9,4.3-.1,0-.3,0-.4,0-2.3,0-4.2-1.9-4.3-4.2,0,0,0,0,0-.1V11.2h-13.1c-2.4.2-4.5-1.5-4.7-3.9-.2-2.4,1.5-4.5,3.9-4.7.3,0,.5,0,.8,0h34.9c2.3,0,4.1,1.7,4.2,4,0,.1,0,.2,0,.3Z"/>
            <path class="cls-3" d="M98.1,2.1c2.3-.1,4.2,1.6,4.3,3.9,0,.1,0,.3,0,.4v77.7c.1,2.3-1.6,4.2-3.8,4.3-.1,0-.3,0-.4,0-2.4,0-4.3-1.9-4.3-4.2,0,0,0,0,0,0v-35.9h-23.7v35.9c.1,2.3-1.6,4.2-3.9,4.3-.1,0-.3,0-.4,0-2.4,0-4.3-1.9-4.3-4.2,0,0,0,0,0,0V6.3c0-2.3,1.9-4.2,4.2-4.3,0,0,0,0,.1,0,2.3-.1,4.2,1.6,4.3,3.8,0,.1,0,.3,0,.4v33.3h23.6V6.3c0-2.3,1.9-4.2,4.2-4.2,0,0,.1,0,.2,0Z"/>
            <path class="cls-3" d="M148.8,49.4l12.3,33.3c.9,2.1-.2,4.6-2.3,5.4,0,0-.1,0-.2,0-2.2.8-4.6-.2-5.5-2.4,0,0,0,0,0-.1l-12.8-34.7h-11v33.3c.1,2.3-1.6,4.2-3.9,4.3-.1,0-.3,0-.4,0-2.3,0-4.2-1.9-4.3-4.2,0,0,0,0,0-.1V6.8c0-2.3,1.9-4.2,4.2-4.3,0,0,0,0,0,0h16.1c11.3,0,20.4,9.1,20.4,20.4h0v7.6c0,8.3-4.9,15.7-12.6,18.9ZM152.8,30.5v-7.6c0-6.5-5.3-11.8-11.8-11.8h-11.8v31.1h11.8c6.5,0,11.7-5.2,11.8-11.6,0,0,0,0,0-.1Z"/>
            <path class="cls-3" d="M180.7,2.6h26.8c2.4.2,4.1,2.3,3.9,4.7-.2,2.1-1.8,3.7-3.9,3.9h-22.7v28.4h19.9c2.4.2,4.1,2.3,3.9,4.7-.2,2.1-1.8,3.7-3.9,3.9h-19.9v31.1h22.7c2.4.2,4.1,2.3,3.9,4.7-.2,2.1-1.8,3.7-3.9,3.9h-26.8c-2.3.1-4.2-1.6-4.3-3.8,0-.1,0-.3,0-.4V6.8c-.1-2.3,1.6-4.2,3.9-4.3.1,0,.3,0,.4,0Z"/>
            <path class="cls-3" d="M230.1,2.6h26.8c2.4-.2,4.5,1.5,4.7,3.9.2,2.4-1.5,4.5-3.9,4.7-.3,0-.5,0-.8,0h-22.7v28.4h19.8c2.4-.2,4.5,1.5,4.7,3.9.2,2.4-1.5,4.5-3.9,4.7-.3,0-.5,0-.8,0h-19.8v31.1h22.7c2.4-.2,4.5,1.5,4.7,3.9.2,2.4-1.5,4.5-3.9,4.7-.3,0-.5,0-.8,0h-26.8c-2.3.1-4.2-1.6-4.3-3.8,0-.1,0-.3,0-.4V6.8c-.1-2.3,1.6-4.2,3.9-4.3.1,0,.3,0,.4,0Z"/>
          </g>
          <g>
            <path class="cls-3" d="M50.3,116c.1,2.3-1.6,4.3-4,4.4-.2,0-.3,0-.5,0h-13.5v75.3c.1,2.3-1.7,4.3-4,4.5-.1,0-.3,0-.4,0-2.4,0-4.4-1.9-4.4-4.3,0,0,0,0,0-.1v-75.3h-13.6c-2.4,0-4.4-2-4.4-4.4,0-2.4,2-4.4,4.4-4.4h36c2.3,0,4.3,1.7,4.3,4,0,.1,0,.3,0,.4Z"/>
            <path class="cls-3" d="M92.9,159.9l12.7,34.3c.8,2.3-.3,4.8-2.6,5.7-2.3.8-4.8-.3-5.7-2.6h0l-13.3-35.9h-11.3v34.3c.1,2.3-1.7,4.3-4,4.5-.1,0-.3,0-.4,0-2.4,0-4.4-1.9-4.4-4.3,0,0,0,0,0-.1v-79.7c0-2.4,1.9-4.4,4.3-4.4,0,0,.1,0,.2,0h16.6c11.6,0,21.1,9.4,21.1,21.1h0v7.6c.1,8.6-5,16.4-13,19.7ZM97,140.4v-7.6c0-6.7-5.5-12.2-12.2-12.2h-12.4v32.1h12.2c6.7,0,12.2-5.4,12.2-12.1,0-.1,0-.2,0-.3h.2Z"/>
            <path class="cls-3" d="M125.6,111.7h27.7c2.4,0,4.4,2,4.4,4.4,0,2.4-2,4.4-4.4,4.4h-23.3v29.4h20.5c2.4,0,4.4,2,4.4,4.4,0,2.4-2,4.4-4.4,4.4h-20.5v32.1h23.3c2.4,0,4.4,2,4.4,4.4,0,2.4-2,4.4-4.4,4.4h-27.7c-2.3.1-4.3-1.7-4.4-4,0-.1,0-.3,0-.4v-79.3c0-2.3,1.8-4.2,4.1-4.3.1,0,.2,0,.3,0Z"/>
            <path class="cls-3" d="M176.5,111.7h27.7c2.4,0,4.4,2,4.4,4.4,0,2.4-2,4.4-4.4,4.4h-23.3v29.4h20.5c2.4,0,4.4,2,4.4,4.4,0,2.4-2,4.4-4.4,4.4h-20.5v32.1h23.2c2.4,0,4.4,2,4.4,4.4,0,2.4-2,4.4-4.4,4.4h-27.7c-2.3.1-4.3-1.6-4.4-4,0-.2,0-.3,0-.5v-79.3c0-2.3,1.8-4.2,4.1-4.3.1,0,.2,0,.3,0Z"/>
            <path class="cls-3" d="M251.9,179.4c.4-3.7-.9-7.4-3.6-9.9l-22.1-22.7c-4.2-4.3-6.4-10.2-5.8-16.2.5-6,3.5-11.5,8.3-15.1,4.8-3.7,11-5.1,16.9-3.8,5.9,1.2,11,4.9,14,10.1,1.5,1.9,1.2,4.7-.7,6.2s-4.7,1.2-6.2-.7c-.3-.3-.5-.7-.6-1.1-1.7-3.1-4.7-5.3-8.2-5.8-3.4-.7-7,0-9.8,2.2-2.8,2-4.5,5.3-4.7,8.7-.3,3.5.9,6.9,3.3,9.4l22.1,22.9c8.3,8.7,7.9,22.4-.7,30.7-8.7,8.3-22.4,7.9-30.7-.7-1.2-1.2-2.2-2.5-3-4-1.1-2.1-.4-4.8,1.7-6.1,2.1-1.2,4.8-.6,6,1.5,0,0,0,0,0,.1,1.8,3.1,4.9,5.2,8.4,5.9,3.6.8,7.3,0,10.2-2.3,3.1-2.1,5-5.6,5.2-9.3Z"/>
          </g>
        </g>
        <path class="cls-3" d="M39.9,228.8c0,1.2-1,2.2-2.2,2.2,0,0,0,0,0,0h-12.4v62.8c0,1.2-1,2.2-2.2,2.2,0,0,0,0,0,0-1.1,0-2.1-.9-2.2-2,0,0,0-.1,0-.2v-62.8h-12.5c-1.2.2-2.3-.7-2.4-1.9s.7-2.3,1.9-2.4c.2,0,.4,0,.6,0h29.3c1.2,0,2.2.9,2.3,2.1,0,0,0,0,0,0Z"/>
        <path class="cls-3" d="M53.6,293.4v-64.6c-.2-1,.5-2,1.5-2.1.2,0,.4,0,.6,0h22.7c1.5,0,2.2.7,2.2,2.1.2,1-.5,2-1.6,2.2-.2,0-.4,0-.6,0h-20.4v26.8h18.2c1.4,0,2.1.7,2.1,2.2s-.7,2.2-2.1,2.2h-18.2v29.1h20.4c1-.2,2,.5,2.2,1.6,0,.2,0,.4,0,.6,0,1.4-.7,2.1-2.2,2.1h-22.7c-1,.2-2-.5-2.1-1.5,0-.2,0-.4,0-.6Z"/>
        <path class="cls-3" d="M93.7,280.3v-38.3c0-8.7,7.1-15.7,15.7-15.6,5.6,0,10.7,3,13.5,7.8.7.9.5,2.1-.3,2.8-.1.1-.3.2-.5.3-1,.5-2.2.2-2.8-.7-2.6-4.4-7.8-6.6-12.7-5.3-5,1.3-8.5,5.8-8.5,11v38.3c0,6.3,5,11.4,11.3,11.4,4.1,0,7.9-2.2,9.9-5.7.6-1,1.9-1.4,2.9-.8,1,.4,1.5,1.6,1.1,2.6,0,.2-.2.3-.3.5-4.3,7.5-13.9,10.1-21.4,5.8-4.9-2.8-7.9-8-7.9-13.7h-.1Z"/>
        <path class="cls-3" d="M165.6,228.4c0-1.1.9-2.1,2-2.1,0,0,0,0,.1,0,1.2,0,2.2.9,2.2,2.1,0,0,0,0,0,0v65.4c0,1.2-1,2.2-2.2,2.2,0,0,0,0,0,0-1.1,0-2.1-.9-2.2-2,0,0,0-.1,0-.2v-31.7h-22.7v31.7c0,1.2-1,2.2-2.2,2.2,0,0,0,0,0,0-1.1,0-2.1-.9-2.1-2,0,0,0,0,0-.1v-65.4c0-1.1.9-2.1,2-2.1,0,0,0,0,0,0,1.2,0,2.2.9,2.3,2.1,0,0,0,0,0,0v29.4h22.7v-29.4Z"/>
        <path class="cls-3" d="M219.9,294.7c-3.8-8.2-7.8-16.1-11.3-23.5-6-12.7-13.1-27-16.1-33.3v55.9c.2,1-.5,2-1.6,2.2-.2,0-.4,0-.6,0-1.5,0-2.1-.7-2.1-2.2v-65.4c-.1-1,.6-2,1.6-2.1,0,0,0,0,0,0,1-.2,2,.3,2.4,1.2,3.8,8.2,7.8,16.1,11.3,23.5,6,12.7,12.9,27,16.1,33.3v-56c0-1.4.7-2.1,2.2-2.1s2.2.7,2.2,2.1v65.4c.1,1.1-.6,2-1.7,2.2,0,0,0,0,0,0-1,.2-2-.3-2.4-1.2Z"/>
        <path class="cls-3" d="M242.3,293.8v-65.4c0-1.1.9-2.1,2-2.1,0,0,0,0,0,0,1.2,0,2.2.9,2.3,2.1,0,0,0,0,0,0v65.4c0,1.2-1,2.2-2.2,2.2,0,0,0,0,0,0-1.1,0-2.1-.9-2.1-2,0,0,0,0,0-.1Z"/>
        <path class="cls-3" d="M263.5,280.3v-38.3c0-8.7,7.1-15.7,15.7-15.7,5.6,0,10.7,3,13.5,7.8.7.9.5,2.1-.3,2.8-.1.1-.3.2-.5.3-1,.6-2.3.2-2.9-.8-2.6-4.4-7.8-6.6-12.7-5.3-5,1.3-8.5,5.8-8.5,11v38.3c0,6.3,5,11.4,11.3,11.4,4.1,0,7.9-2.2,9.9-5.7.6-1,1.9-1.4,2.9-.8,1,.4,1.5,1.6,1.1,2.6,0,.2-.2.3-.3.5-4.3,7.5-13.9,10.1-21.4,5.8-4.9-2.8-7.9-8-7.9-13.7h0Z"/>
        <path class="cls-3" d="M342.1,296c-1.1.3-2.3-.3-2.7-1.4,0,0,0,0,0-.1-.3-1.2-.8-2.6-1.1-4-.8-2.6-1.5-6-2.7-10.2h-24.1c-1.2,4.2-2,7.6-2.8,10.2-.3,1.5-.8,2.8-1.1,4-.2,1.1-1.2,1.8-2.3,1.7,0,0-.2,0-.3,0-1.1-.2-1.9-1.4-1.6-2.5,0,0,0-.1,0-.2l18.1-65.4c.2-1,1.1-1.6,2.1-1.6,1,0,1.8.6,2,1.6l18,65.4c.4,1.1-.2,2.2-1.2,2.6,0,0-.1,0-.2,0ZM323.4,236.4c-1.8,6.9-6.9,25.2-10.8,39.4h21.7c-3.9-14.1-9-32.4-10.8-39.4Z"/>
        <path class="cls-3" d="M356.8,293.4v-65c0-1.2,1.1-2.2,2.3-2.1,0,0,0,0,0,0,1.1,0,2.1.9,2.2,2,0,0,0,0,0,.1v62.9h20.4c1.2-.2,2.3.7,2.4,1.9s-.7,2.3-1.9,2.4c-.2,0-.4,0-.6,0h-22.7c-1.2,0-2.1-.9-2.2-2.1Z"/>
      </g>
    </g>
  </g>
</svg>